<?xml version="1.0" encoding="UTF-8"?>
<!DOCTYPE svg PUBLIC "-//W3C//DTD SVG 1.1//EN"
    "http://www.w3.org/Graphics/SVG/1.1/DTD/svg11.dtd"><svg font-size="1" viewBox="0.0 0.0 800.0 600.0" stroke="rgb(0,0,0)" xmlns="http://www.w3.org/2000/svg" width="800.0000" stroke-opacity="1" height="600.0000" version="1.1" xmlns:xlink="http://www.w3.org/1999/xlink"><defs></defs><g stroke-linejoin="bevel" fill-opacity="1.0" fill="rgb(255,255,255)" stroke="rgb(0,0,0)" stroke-linecap="butt" stroke-miterlimit="10.0" stroke-opacity="0.0" stroke-width="0.0"><path d="M 0.0000,0.0000 v 600.0000 h 800.0000 v -600.0000 Z"/></g><g stroke-linejoin="miter" fill-opacity="0.0" stroke-dashoffset="0.0" fill="rgb(0,0,0)" stroke="rgb(211,211,211)" stroke-linecap="butt" stroke-miterlimit="10.0" stroke-opacity="1.0" stroke-dasharray="4.999999999999998,4.999999999999998" stroke-width="0.9999999999999997"><path d="M 29.6008,15.0000 v 555.0000 "/></g><g stroke-linejoin="miter" fill-opacity="0.0" stroke-dashoffset="0.0" fill="rgb(0,0,0)" stroke="rgb(211,211,211)" stroke-linecap="butt" stroke-miterlimit="10.0" stroke-opacity="1.0" stroke-dasharray="4.999999999999998,4.999999999999998" stroke-width="0.9999999999999997"><path d="M 180.7248,15.0000 v 555.0000 "/></g><g stroke-linejoin="miter" fill-opacity="0.0" stroke-dashoffset="0.0" fill="rgb(0,0,0)" stroke="rgb(211,211,211)" stroke-linecap="butt" stroke-miterlimit="10.0" stroke-opacity="1.0" stroke-dasharray="4.999999999999998,4.999999999999998" stroke-width="0.9999999999999997"><path d="M 331.8487,15.0000 v 555.0000 "/></g><g stroke-linejoin="miter" fill-opacity="0.0" stroke-dashoffset="0.0" fill="rgb(0,0,0)" stroke="rgb(211,211,211)" stroke-linecap="butt" stroke-miterlimit="10.0" stroke-opacity="1.0" stroke-dasharray="4.999999999999998,4.999999999999998" stroke-width="0.9999999999999997"><path d="M 482.9727,15.0000 v 555.0000 "/></g><g stroke-linejoin="miter" fill-opacity="0.0" stroke-dashoffset="0.0" fill="rgb(0,0,0)" stroke="rgb(211,211,211)" stroke-linecap="butt" stroke-miterlimit="10.0" stroke-opacity="1.0" stroke-dasharray="4.999999999999998,4.999999999999998" stroke-width="0.9999999999999997"><path d="M 634.0966,15.0000 v 555.0000 "/></g><g stroke-linejoin="miter" fill-opacity="0.0" stroke-dashoffset="0.0" fill="rgb(0,0,0)" stroke="rgb(211,211,211)" stroke-linecap="butt" stroke-miterlimit="10.0" stroke-opacity="1.0" stroke-dasharray="4.999999999999998,4.999999999999998" stroke-width="0.9999999999999997"><path d="M 785.2206,15.0000 v 555.0000 "/></g><g stroke-linejoin="miter" fill-opacity="0.0" stroke-dashoffset="0.0" fill="rgb(0,0,0)" stroke="rgb(211,211,211)" stroke-linecap="butt" stroke-miterlimit="10.0" stroke-opacity="1.0" stroke-dasharray="4.999999999999998,4.999999999999998" stroke-width="0.9999999999999997"><path d="M 29.6008,570.0000 h 755.6197 "/></g><g stroke-linejoin="miter" fill-opacity="0.0" stroke-dashoffset="0.0" fill="rgb(0,0,0)" stroke="rgb(211,211,211)" stroke-linecap="butt" stroke-miterlimit="10.0" stroke-opacity="1.0" stroke-dasharray="4.999999999999998,4.999999999999998" stroke-width="0.9999999999999997"><path d="M 29.6008,459.0000 h 755.6197 "/></g><g stroke-linejoin="miter" fill-opacity="0.0" stroke-dashoffset="0.0" fill="rgb(0,0,0)" stroke="rgb(211,211,211)" stroke-linecap="butt" stroke-miterlimit="10.0" stroke-opacity="1.0" stroke-dasharray="4.999999999999998,4.999999999999998" stroke-width="0.9999999999999997"><path d="M 29.6008,348.0000 h 755.6197 "/></g><g stroke-linejoin="miter" fill-opacity="0.0" stroke-dashoffset="0.0" fill="rgb(0,0,0)" stroke="rgb(211,211,211)" stroke-linecap="butt" stroke-miterlimit="10.0" stroke-opacity="1.0" stroke-dasharray="4.999999999999998,4.999999999999998" stroke-width="0.9999999999999997"><path d="M 29.6008,237.0000 h 755.6197 "/></g><g stroke-linejoin="miter" fill-opacity="0.0" stroke-dashoffset="0.0" fill="rgb(0,0,0)" stroke="rgb(211,211,211)" stroke-linecap="butt" stroke-miterlimit="10.0" stroke-opacity="1.0" stroke-dasharray="4.999999999999998,4.999999999999998" stroke-width="0.9999999999999997"><path d="M 29.6008,126.0000 h 755.6197 "/></g><g stroke-linejoin="miter" fill-opacity="0.0" stroke-dashoffset="0.0" fill="rgb(0,0,0)" stroke="rgb(211,211,211)" stroke-linecap="butt" stroke-miterlimit="10.0" stroke-opacity="1.0" stroke-dasharray="4.999999999999998,4.999999999999998" stroke-width="0.9999999999999997"><path d="M 29.6008,15.0000 h 755.6197 "/></g><g stroke-linejoin="round" fill-opacity="0.0" fill="rgb(0,0,0)" stroke="rgb(0,0,255)" stroke-linecap="round" stroke-miterlimit="10.0" stroke-opacity="1.0" stroke-width="0.9999999999999997"><defs><clipPath id="myClip1"><path d="M 29.6008,15.0000 v 555.0000 h 755.6197 v -555.0000 Z"/></clipPath></defs><g clip-path="url(#myClip1)"><path d="M 67.7058,545.9893 l 3.1386,1.7074 l 3.4624,1.5407 l 3.8170,1.3877 l 4.2054,1.2469 l 4.6309,1.1171 l 5.0970,0.9968 l 5.6076,0.8849 l 6.1667,0.7803 l 6.7787,0.6817 l 7.4483,0.5879 l 8.1803,0.4978 l 8.9800,0.4100 l 9.8526,0.3231 l 10.8034,0.2355 l 11.8379,0.1452 l 12.9611,0.0502 l 14.1773,-0.0525 l 15.4902,-0.1663 l 16.9013,-0.2959 l 18.4098,-0.4471 l 20.0109,-0.6281 l 21.6936,-0.8498 l 23.4380,-1.1274 l 25.2110,-1.4820 l 26.9597,-1.9437 l 28.6023,-2.5552 l 30.0148,-3.3778 l 31.0114,-4.4994 l 31.3191,-6.0447 l 30.5456,-8.1872 l 28.1471,-11.1572 l 23.4178,-15.2323 l 15.5471,-20.6825 l 3.8335,-27.6195 l -11.8481,-35.7054 l -30.3546,-43.7764 l -48.7748,-49.6850 l -62.9505,-50.8789 l -69.3922,-45.8102 l -67.3507,-35.1560 l -59.0595,-21.5493 l -48.0064,-8.0242 l -37.0528,3.3496 l -27.7122,11.7948 l -20.3987,17.4380 l -14.9407,20.8058 l -10.9663,22.4918 l -8.0997,23.0087 l -6.0318,22.7493 l -4.5303,21.9967 l -3.4282,20.9473 l -2.6084,19.7347 l -1.9888,18.4481 l -1.5125,17.1461 l -1.1393,15.8668 l -0.8408,14.6337 l -0.5969,13.4612 l -0.3928,12.3569 l -0.2177,11.3243 l -0.0637,10.3639 l 0.0754,9.4742 l 0.2044,8.6529 l 0.3270,7.8964 l 0.4462,7.2011 l 0.5645,6.5632 l 0.6842,5.9786 l 0.8071,5.4434 l 0.9351,4.9540 l 1.0697,4.5066 l 1.2127,4.0979 l 1.3656,3.7247 l 1.5299,3.3840 l 1.7075,3.0730 l 1.9000,2.7891 l 2.1093,2.5299 l 2.3372,2.2932 l 2.5860,2.0769 l 2.8578,1.8792 l 3.1552,1.6981 l 3.4806,1.5322 l 3.8369,1.3799 l 4.2272,1.2398 l 4.6547,1.1104 l 5.1231,0.9907 l 5.6362,0.8792 l 6.1980,0.7749 l 6.8129,0.6766 l 7.4857,0.5830 l 8.2212,0.4931 l 9.0246,0.4053 l 9.9012,0.3184 l 10.8564,0.2307 l 11.8955,0.1403 l 13.0235,0.0449 l 14.2449,-0.0583 l 15.5629,-0.1728 l 16.9793,-0.3033 l 18.4929,-0.4559 l 20.0987,-0.6388 "/></g></g><g stroke-linejoin="round" fill-opacity="0.0" fill="rgb(0,0,0)" stroke="rgb(0,128,0)" stroke-linecap="round" stroke-miterlimit="10.0" stroke-opacity="1.0" stroke-width="0.9999999999999997"><defs><clipPath id="myClip2"><path d="M 29.6008,15.0000 v 555.0000 h 755.6197 v -555.0000 Z"/></clipPath></defs><g clip-path="url(#myClip2)"><path d="M 104.0783,520.8271 l 4.3516,2.3655 l 4.7744,2.1170 l 5.2233,1.8799 l 5.6998,1.6525 l 6.2054,1.4326 l 6.7410,1.2182 l 7.3070,1.0070 l 7.9035,0.7965 l 8.5293,0.5838 l 9.1824,0.3656 l 9.8592,0.1383 l 10.5543,-0.1026 l 11.2599,-0.3624 l 11.9650,-0.6472 l 12.6547,-0.9647 l 13.3090,-1.3239 l 13.9018,-1.7358 l 14.3991,-2.2137 l 14.7577,-2.7735 l 14.9236,-3.4336 l 14.8304,-4.2152 l 14.3994,-5.1411 l 13.5404,-6.2337 l 12.1565,-7.5118 l 10.1529,-8.9836 l 7.4535,-10.6376 l 4.0243,-12.4298 l -0.0960,-14.2692 l -4.7653,-16.0075 l -9.7189,-17.4387 l -14.5781,-18.3201 l -18.9011,-18.4169 l -22.2697,-17.5649 l -24.3897,-15.7278 l -25.1618,-13.0232 l -24.6918,-9.7001 l -23.2402,-6.0786 l -21.1380,-2.4754 l -18.7058,0.8534 l -16.2030,3.7398 l -13.8079,6.1034 l -11.6240,7.9338 l -9.6964,9.2670 l -8.0314,10.1645 l -6.6125,10.6973 l -5.4121,10.9355 l -4.3989,10.9433 l -3.5425,10.7759 l -2.8151,10.4793 l -2.1925,10.0908 l -1.6542,9.6400 l -1.1830,9.1501 l -0.7649,8.6390 l -0.3879,8.1200 l -0.0425,7.6032 l 0.2795,7.0960 l 0.5848,6.6036 l 0.8792,6.1295 l 1.1675,5.6760 l 1.4540,5.2443 l 1.7424,4.8350 l 2.0362,4.4481 l 2.3383,4.0830 l 2.6515,3.7390 l 2.9785,3.4149 l 3.3217,3.1097 l 3.6835,2.8218 l 4.0660,2.5499 l 4.4714,2.2923 l 4.9016,2.0473 l 5.3583,1.8132 l 5.8431,1.5881 l 6.3573,1.3700 l 6.9017,1.1568 l 7.4766,0.9461 l 8.0817,0.7353 l 8.7157,0.5213 l 9.3761,0.3009 l 10.0589,0.0701 l 10.7579,-0.1757 l 11.4647,-0.4420 l 12.1671,-0.7354 l 12.8488,-1.0639 l 13.4883,-1.4371 l 14.0573,-1.8667 l 14.5194,-2.3666 l 14.8283,-2.9534 l 14.9265,-3.6464 l 14.7442,-4.4674 l 14.1990,-5.4393 l 13.1981,-6.5841 l 11.6440,-7.9180 l 9.4455,-9.4449 l 6.5357,-11.1453 l 2.8984,-12.9629 l -1.4007,-14.7910 l -6.1851,-16.4638 l -11.1543,-17.7615 l -15.9047,-18.4380 "/></g></g><g stroke-linejoin="round" fill-opacity="0.0" fill="rgb(0,0,0)" stroke="rgb(255,0,0)" stroke-linecap="round" stroke-miterlimit="10.0" stroke-opacity="1.0" stroke-width="0.9999999999999997"><defs><clipPath id="myClip3"><path d="M 29.6008,15.0000 v 555.0000 h 755.6197 v -555.0000 Z"/></clipPath></defs><g clip-path="url(#myClip3)"><path d="M 138.7200,494.5145 l 3.6503,1.9818 l 3.9685,1.7491 l 4.2860,1.5159 l 4.6016,1.2814 l 4.9132,1.0446 l 5.2184,0.8041 l 5.5138,0.5587 l 5.7952,0.3066 l 6.0573,0.0460 l 6.2941,-0.2250 l 6.4981,-0.5086 l 6.6609,-0.8069 l 6.7727,-1.1222 l 6.8223,-1.4567 l 6.7978,-1.8121 l 6.6861,-2.1900 l 6.4738,-2.5911 l 6.1473,-3.0150 l 5.6943,-3.4598 l 5.1043,-3.9216 l 4.3704,-4.3938 l 3.4906,-4.8665 l 2.4697,-5.3263 l 1.3207,-5.7557 l 0.0662,-6.1336 l -1.2613,-6.4359 l -2.6203,-6.6370 l -3.9620,-6.7119 l -5.2340,-6.6390 l -6.3848,-6.4032 l -7.3685,-5.9980 l -8.1498,-5.4280 l -8.7071,-4.7088 l -9.0337,-3.8662 l -9.1381,-2.9337 l -9.0408,-1.9490 l -8.7708,-0.9506 l -8.3622,0.0254 l -7.8498,0.9484 l -7.2665,1.7944 l -6.6413,2.5467 l -5.9979,3.1955 l -5.3548,3.7372 l -4.7256,4.1731 l -4.1193,4.5082 l -3.5414,4.7501 l -2.9946,4.9080 l -2.4793,4.9918 l -1.9947,5.0112 l -1.5387,4.9760 l -1.1088,4.8949 l -0.7021,4.7762 l -0.3156,4.6269 l 0.0538,4.4536 l 0.4089,4.2614 l 0.7524,4.0551 l 1.0867,3.8383 l 1.4142,3.6143 l 1.7368,3.3855 l 2.0561,3.1537 l 2.3736,2.9205 l 2.6904,2.6869 l 3.0073,2.4533 l 3.3246,2.2202 l 3.6425,1.9875 l 3.9607,1.7548 l 4.2782,1.5216 l 4.5939,1.2872 l 4.9057,1.0504 l 5.2111,0.8101 l 5.5068,0.5648 l 5.7885,0.3128 l 6.0512,0.0525 l 6.2887,-0.2182 l 6.4936,-0.5015 l 6.6575,-0.7994 l 6.7706,-1.1143 l 6.8219,-1.4482 l 6.7994,-1.8031 l 6.6900,-2.1805 l 6.4802,-2.5810 l 6.1567,-3.0044 l 5.7069,-3.4487 l 5.1204,-3.9102 l 4.3901,-4.3822 l 3.5138,-4.8551 l 2.4962,-5.3154 l 1.3501,-5.7457 l 0.0979,-6.1252 l -1.2283,-6.4296 l -2.5871,-6.6335 l -3.9298,-6.7117 l -5.2042,-6.6427 l -6.3585,-6.4109 l -7.3468,-6.0099 l -8.1334,-5.4438 l -8.6962,-4.7280 l -9.0285,-3.8880 l -9.1381,-2.9572 "/></g></g><g stroke-linejoin="round" fill-opacity="0.0" fill="rgb(0,0,0)" stroke="rgb(238,130,238)" stroke-linecap="round" stroke-miterlimit="10.0" stroke-opacity="1.0" stroke-width="0.9999999999999997"><defs><clipPath id="myClip4"><path d="M 29.6008,15.0000 v 555.0000 h 755.6197 v -555.0000 Z"/></clipPath></defs><g clip-path="url(#myClip4)"><path d="M 171.6360,467.0553 l 1.0728,0.5814 l 1.1514,0.5031 l 1.2213,0.4210 l 1.2816,0.3355 l 1.3318,0.2472 l 1.3711,0.1565 l 1.3988,0.0640 l 1.4143,-0.0297 l 1.4169,-0.1242 l 1.4061,-0.2187 l 1.3815,-0.3127 l 1.3427,-0.4054 l 1.2896,-0.4960 l 1.2221,-0.5839 l 1.1403,-0.6682 l 1.0446,-0.7479 l 0.9357,-0.8222 l 0.8142,-0.8901 l 0.6814,-0.9506 l 0.5384,-1.0027 l 0.3869,-1.0455 l 0.2287,-1.0781 l 0.0658,-1.0996 l -0.0996,-1.1093 l -0.2653,-1.1067 l -0.4289,-1.0913 l -0.5879,-1.0629 l -0.7401,-1.0216 l -0.8832,-0.9674 l -1.0151,-0.9010 l -1.1340,-0.8230 l -1.2384,-0.7345 l -1.3268,-0.6366 l -1.3985,-0.5306 l -1.4527,-0.4181 l -1.4892,-0.3008 l -1.5081,-0.1804 l -1.5096,-0.0586 l -1.4944,0.0628 l -1.4632,0.1821 l -1.4172,0.2978 l -1.3573,0.4083 l -1.2849,0.5125 l -1.2013,0.6092 l -1.1078,0.6973 l -1.0057,0.7762 l -0.8963,0.8453 l -0.7810,0.9041 l -0.6608,0.9524 l -0.5369,0.9902 l -0.4105,1.0174 l -0.2824,1.0342 l -0.1537,1.0410 l -0.0252,1.0379 l 0.1023,1.0255 l 0.2280,1.0041 l 0.3511,0.9742 l 0.4709,0.9364 l 0.5868,0.8912 l 0.6980,0.8391 l 0.8039,0.7807 l 0.9038,0.7164 l 0.9969,0.6467 l 1.0826,0.5723 l 1.1602,0.4935 l 1.2290,0.4110 l 1.2882,0.3251 l 1.3371,0.2365 l 1.3750,0.1456 l 1.4013,0.0529 l 1.4153,-0.0410 l 1.4163,-0.1355 l 1.4039,-0.2300 l 1.3776,-0.3238 l 1.3371,-0.4163 l 1.2823,-0.5067 l 1.2131,-0.5942 l 1.1296,-0.6780 l 1.0323,-0.7571 l 0.9218,-0.8307 l 0.7989,-0.8977 l 0.6648,-0.9573 l 0.5207,-1.0083 l 0.3684,-1.0499 l 0.2095,-1.0812 l 0.0462,-1.1014 l -0.1194,-1.1097 l -0.2850,-1.1056 l -0.4481,-1.0886 l -0.6065,-1.0587 l -0.7577,-1.0158 l -0.8996,-0.9601 l -1.0300,-0.8923 l -1.1473,-0.8130 l -1.2498,-0.7233 l -1.3363,-0.6243 l -1.4059,-0.5175 l -1.4580,-0.4043 l -1.4924,-0.2866 "/></g></g><g stroke-linejoin="round" fill-opacity="0.0" fill="rgb(0,0,0)" stroke="rgb(0,0,255)" stroke-linecap="round" stroke-miterlimit="10.0" stroke-opacity="1.0" stroke-width="0.9999999999999997"><defs><clipPath id="myClip5"><path d="M 29.6008,15.0000 v 555.0000 h 755.6197 v -555.0000 Z"/></clipPath></defs><g clip-path="url(#myClip5)"><path d="M 202.8353,438.4556 l -3.3176,-1.7939 l -3.5025,-1.5133 l -3.6302,-1.2086 l -3.7014,-0.8864 l -3.7181,-0.5538 l -3.6840,-0.2180 l -3.6035,0.1142 l -3.4819,0.4363 l -3.3248,0.7427 l -3.1379,1.0287 l -2.9268,1.2905 l -2.6965,1.5252 l -2.4518,1.7310 l -2.1968,1.9070 l -1.9350,2.0528 l -1.6694,2.1690 l -1.4024,2.2564 l -1.1358,2.3165 l -0.8713,2.3509 l -0.6099,2.3615 l -0.3525,2.3501 l -0.0996,2.3188 l 0.1483,2.2695 l 0.3908,2.2040 l 0.6278,2.1241 l 0.8590,2.0314 l 1.0841,1.9273 l 1.3029,1.8133 l 1.5151,1.6903 l 1.7200,1.5594 l 1.9172,1.4215 l 2.1058,1.2773 l 2.2849,1.1272 l 2.4534,0.9719 l 2.6099,0.8116 l 2.7530,0.6467 l 2.8807,0.4773 l 2.9913,0.3036 l 3.0824,0.1259 l 3.1517,-0.0558 l 3.1968,-0.2412 l 3.2149,-0.4300 l 3.2034,-0.6217 l 3.1598,-0.8159 l 3.0813,-1.0115 l 2.9659,-1.2077 l 2.8115,-1.4030 l 2.6168,-1.5956 l 2.3811,-1.7835 l 2.1047,-1.9640 l 1.7887,-2.1343 l 1.4357,-2.2909 l 1.0492,-2.4300 l 0.6344,-2.5476 l 0.1975,-2.6395 l -0.2538,-2.7017 l -0.7109,-2.7301 l -1.1645,-2.7215 l -1.6049,-2.6731 l -2.0224,-2.5832 l -2.4079,-2.4513 l -2.7532,-2.2783 l -3.0513,-2.0663 l -3.2972,-1.8189 l -3.4875,-1.5409 l -3.6206,-1.2382 l -3.6971,-0.9173 l -3.7188,-0.5854 l -3.6893,-0.2496 l -3.6129,0.0832 l -3.4949,0.4065 l -3.3410,0.7147 l -3.1567,1.0028 l -2.9476,1.2669 l -2.7189,1.5043 l -2.4754,1.7129 l -2.2212,1.8917 l -1.9599,2.0403 l -1.6945,2.1592 l -1.4275,2.2493 l -1.1609,2.3120 l -0.8961,2.3487 l -0.6344,2.3615 l -0.3765,2.3521 l -0.1232,2.3226 l 0.1251,2.2749 l 0.3682,2.2108 l 0.6057,2.1322 l 0.8374,2.0406 l 1.0631,1.9376 l 1.2826,1.8244 l 1.4954,1.7022 l 1.7010,1.5721 l 1.8990,1.4348 l 2.0884,1.2911 l 2.2685,1.1416 l 2.4380,0.9868 l 2.5957,0.8270 l 2.7401,0.6624 "/></g></g><g stroke-linejoin="round" fill-opacity="0.0" fill="rgb(0,0,0)" stroke="rgb(0,128,0)" stroke-linecap="round" stroke-miterlimit="10.0" stroke-opacity="1.0" stroke-width="0.9999999999999997"><defs><clipPath id="myClip6"><path d="M 29.6008,15.0000 v 555.0000 h 755.6197 v -555.0000 Z"/></clipPath></defs><g clip-path="url(#myClip6)"><path d="M 48.6559,546.2787 l 1.5774,1.9739 l 1.7458,1.7877 l 1.9308,1.6185 l 2.1341,1.4646 l 2.3575,1.3245 l 2.6034,1.1971 l 2.8738,1.0809 l 3.1714,0.9750 l 3.4990,0.8782 l 3.8595,0.7897 l 4.2564,0.7085 l 4.6932,0.6338 l 5.1739,0.5649 l 5.7029,0.5011 l 6.2848,0.4415 l 6.9249,0.3856 l 7.6287,0.3326 l 8.4023,0.2818 l 9.2521,0.2324 l 10.1853,0.1837 l 11.2091,0.1346 l 12.3314,0.0841 l 13.5604,0.0308 l 14.9044,-0.0269 l 16.3717,-0.0911 l 17.9702,-0.1647 l 19.7067,-0.2514 l 21.5862,-0.3563 l 23.6105,-0.4865 l 25.7760,-0.6523 l 28.0706,-0.8682 l 30.4685,-1.1557 l 32.9226,-1.5470 l 35.3510,-2.0908 l 37.6180,-2.8618 l 39.5014,-3.9756 l 40.6433,-5.6121 l 40.4765,-8.0493 l 38.1253,-11.7046 l 32.3042,-17.1672 l 21.3134,-25.1545 l 3.3826,-36.2353 l -22.2002,-50.0792 l -53.0093,-64.2293 l -81.8672,-73.4767 l -99.0968,-72.0109 l -99.2732,-58.1532 l -85.5533,-36.4605 l -66.0510,-14.0503 l -47.5111,4.1686 l -32.8894,16.7426 l -22.4299,24.3425 l -15.3016,28.2897 l -10.5367,29.8054 l -7.3586,29.7990 l -5.2218,28.8854 l -3.7652,27.4616 l -2.7549,25.7774 l -2.0408,23.9879 l -1.5258,22.1875 l -1.1465,20.4331 l -0.8611,18.7572 l -0.6415,17.1775 l -0.4684,15.7021 l -0.3286,14.3329 l -0.2128,13.0686 l -0.1142,11.9051 l -0.0278,10.8373 l 0.0500,9.8595 l 0.1220,8.9654 l 0.1905,8.1491 l 0.2572,7.4046 l 0.3236,6.7260 l 0.3909,6.1080 l 0.4604,5.5456 l 0.5329,5.0338 l 0.6096,4.5684 l 0.6912,4.1453 l 0.7789,3.7608 l 0.8735,3.4113 l 0.9760,3.0937 l 1.0876,2.8052 l 1.2093,2.5431 l 1.3423,2.3050 l 1.4880,2.0886 l 1.6477,1.8920 l 1.8230,1.7133 l 2.0156,1.5508 l 2.2273,1.4030 l 2.4601,1.2685 l 2.7162,1.1460 l 2.9979,1.0344 l 3.3080,0.9325 l 3.6494,0.8393 l 4.0250,0.7541 l 4.4385,0.6758 l 4.8937,0.6037 l 5.3945,0.5370 l 5.9456,0.4751 "/></g></g><g stroke-linejoin="round" fill-opacity="0.0" fill="rgb(0,0,0)" stroke="rgb(255,0,0)" stroke-linecap="round" stroke-miterlimit="10.0" stroke-opacity="1.0" stroke-width="0.9999999999999997"><defs><clipPath id="myClip7"><path d="M 29.6008,15.0000 v 555.0000 h 755.6197 v -555.0000 Z"/></clipPath></defs><g clip-path="url(#myClip7)"><path d="M 66.8594,521.9918 l 2.2379,3.4519 l 2.4967,3.1389 l 2.7751,2.8506 l 3.0754,2.5849 l 3.4001,2.3397 l 3.7519,2.1131 l 4.1334,1.9032 l 4.5475,1.7083 l 4.9971,1.5267 l 5.4855,1.3566 l 6.0158,1.1964 l 6.5912,1.0444 l 7.2153,0.8989 l 7.8913,0.7581 l 8.6225,0.6201 l 9.4118,0.4828 l 10.2620,0.3438 l 11.1750,0.2002 l 12.1516,0.0488 l 13.1916,-0.1145 l 14.2922,-0.2948 l 15.4478,-0.4985 l 16.6487,-0.7336 l 17.8791,-1.0110 l 19.1150,-1.3446 l 20.3213,-1.7531 l 21.4470,-2.2611 l 22.4200,-2.9018 l 23.1399,-3.7188 l 23.4685,-4.7698 l 23.2209,-6.1286 l 22.1563,-7.8859 l 19.9764,-10.1452 l 16.3409,-13.0070 l 10.9161,-16.5329 l 3.4800,-20.6797 l -5.9069,-25.2033 l -16.6971,-29.5613 l -27.7293,-32.8940 l -37.3596,-34.1880 l -43.9475,-32.6511 l -46.5157,-28.1277 l -45.1525,-21.2541 l -40.8631,-13.2036 l -35.0231,-5.2060 l -28.8441,1.8353 l -23.1161,7.4688 l -18.2121,11.6168 l -14.2148,14.4259 l -11.0514,16.1364 l -8.5879,17.0003 l -6.6825,17.2411 l -5.2092,17.0406 l -4.0646,16.5390 l -3.1683,15.8414 l -2.4584,15.0244 l -1.8887,14.1431 l -1.4242,13.2363 l -1.0389,12.3311 l -0.7129,11.4459 l -0.4314,10.5928 l -0.1828,9.7796 l 0.0419,9.0105 l 0.2496,8.2877 l 0.4461,7.6118 l 0.6359,6.9822 l 0.8229,6.3974 l 1.0105,5.8555 l 1.2016,5.3545 l 1.3988,4.8919 l 1.6046,4.4652 l 1.8213,4.0721 l 2.0512,3.7100 l 2.2967,3.3766 l 2.5598,3.0695 l 2.8431,2.7867 l 3.1489,2.5259 l 3.4797,2.2852 l 3.8381,2.0627 l 4.2270,1.8565 l 4.6491,1.6648 l 5.1075,1.4860 l 5.6054,1.3183 l 6.1459,1.1602 l 6.7324,1.0099 l 7.3683,0.8657 l 8.0569,0.7257 l 8.8014,0.5881 l 9.6047,0.4506 l 10.4694,0.3108 l 11.3972,0.1657 l 12.3888,0.0119 l 13.4432,-0.1549 l 14.5573,-0.3400 l 15.7245,-0.5502 l 16.9339,-0.7941 l 18.1681,-1.0832 l 19.4008,-1.4325 l 20.5935,-1.8617 "/></g></g><g stroke-linejoin="round" fill-opacity="0.0" fill="rgb(0,0,0)" stroke="rgb(238,130,238)" stroke-linecap="round" stroke-miterlimit="10.0" stroke-opacity="1.0" stroke-width="0.9999999999999997"><defs><clipPath id="myClip8"><path d="M 29.6008,15.0000 v 555.0000 h 755.6197 v -555.0000 Z"/></clipPath></defs><g clip-path="url(#myClip8)"><path d="M 84.2259,497.1493 l 2.0254,4.4617 l 2.3273,4.0960 l 2.6402,3.7513 l 2.9668,3.4266 l 3.3095,3.1207 l 3.6706,2.8322 l 4.0524,2.5597 l 4.4570,2.3015 l 4.8862,2.0560 l 5.3419,1.8215 l 5.8256,1.5960 l 6.3385,1.3776 l 6.8815,1.1641 l 7.4550,0.9531 l 8.0586,0.7421 l 8.6910,0.5281 l 9.3498,0.3078 l 10.0310,0.0771 l 10.7287,-0.1684 l 11.4341,-0.4342 l 12.1354,-0.7270 l 12.8164,-1.0545 l 13.4558,-1.4264 l 14.0255,-1.8543 l 14.4893,-2.3519 l 14.8014,-2.9359 l 14.9047,-3.6253 l 14.7298,-4.4418 l 14.1951,-5.4082 l 13.2081,-6.5463 l 11.6719,-7.8727 l 9.4953,-9.3913 l 6.6108,-11.0834 l 3.0007,-12.8941 l -1.2719,-14.7183 l -6.0343,-16.3925 l -10.9905,-17.6990 l -15.7407,-18.3930 l -19.8414,-18.2529 l -22.8993,-17.1439 l -24.6672,-15.0691 l -25.1008,-12.1836 l -24.3520,-8.7607 l -22.7066,-5.1247 l -20.4981,-1.5801 l -18.0337,1.6394 l -15.5516,4.3898 l -13.2094,6.6107 l -11.0935,8.3058 l -9.2374,9.5191 l -7.6403,10.3156 l -6.2821,10.7664 l -5.1339,10.9404 l -4.1645,10.8993 l -3.3442,10.6959 l -2.6460,10.3737 l -2.0469,9.9679 l -1.5273,9.5063 l -1.0709,9.0105 l -0.6642,8.4972 l -0.2960,7.9789 l 0.0429,7.4649 l 0.3603,6.9618 l 0.6625,6.4745 l 0.9552,6.0061 l 1.2429,5.5587 l 1.5298,5.1332 l 1.8196,4.7301 l 2.1154,4.3491 l 2.4204,3.9898 l 2.7372,3.6513 l 3.0683,3.3324 l 3.4164,3.0319 l 3.7835,2.7484 l 4.1720,2.4804 l 4.5837,2.2262 l 5.0208,1.9842 l 5.4847,1.7526 l 5.9771,1.5295 l 6.4991,1.3127 l 7.0513,1.1003 l 7.6339,0.8896 l 8.2464,0.6780 l 8.8871,0.4625 l 9.5532,0.2395 l 10.2401,0.0049 l 10.9411,-0.2461 l 11.6467,-0.5193 l 12.3438,-0.8217 l 13.0148,-1.1615 l 13.6365,-1.5490 l 14.1784,-1.9963 l 14.6018,-2.5182 l 14.8574,-3.1318 l 14.8847,-3.8572 l 14.6105,-4.7165 l 13.9494,-5.7325 l 12.8071,-6.9260 l 11.0866,-8.3108 "/></g></g><g stroke-linejoin="round" fill-opacity="0.0" fill="rgb(0,0,0)" stroke="rgb(0,0,255)" stroke-linecap="round" stroke-miterlimit="10.0" stroke-opacity="1.0" stroke-width="0.9999999999999997"><defs><clipPath id="myClip9"><path d="M 29.6008,15.0000 v 555.0000 h 755.6197 v -555.0000 Z"/></clipPath></defs><g clip-path="url(#myClip9)"><path d="M 100.7705,471.7615 l 0.9881,5.0336 l 1.3236,4.7080 l 1.6550,4.3873 l 1.9856,4.0735 l 2.3181,3.7677 l 2.6550,3.4707 l 2.9983,3.1827 l 3.3499,2.9036 l 3.7113,2.6330 l 4.0836,2.3702 l 4.4677,2.1142 l 4.8641,1.8638 l 5.2727,1.6177 l 5.6930,1.3742 l 6.1237,1.1314 l 6.5630,0.8872 l 7.0078,0.6392 l 7.4542,0.3847 l 7.8967,0.1205 l 8.3283,-0.1568 l 8.7399,-0.4512 l 9.1203,-0.7672 l 9.4556,-1.1098 l 9.7287,-1.4848 l 9.9194,-1.8981 l 10.0038,-2.3562 l 9.9543,-2.8658 l 9.7401,-3.4331 l 9.3278,-4.0632 l 8.6831,-4.7591 l 7.7734,-5.5199 l 6.5714,-6.3390 l 5.0605,-7.2011 l 3.2408,-8.0803 l 1.1361,-8.9372 l -1.2004,-9.7186 l -3.6834,-10.3582 l -6.1970,-10.7822 l -8.6038,-10.9177 l -10.7603,-10.7043 l -12.5367,-10.1070 l -13.8366,-9.1254 l -14.6117,-7.7979 l -14.8660,-6.1974 l -14.6503,-4.4204 l -14.0484,-2.5726 l -13.1605,-0.7540 l -12.0865,0.9518 l -10.9154,2.4837 l -9.7185,3.8043 l -8.5480,4.8976 l -7.4381,5.7645 l -6.4084,6.4180 l -5.4674,6.8784 l -4.6158,7.1699 l -3.8493,7.3178 l -3.1609,7.3463 l -2.5418,7.2781 l -1.9832,7.1331 l -1.4762,6.9288 l -1.0125,6.6798 l -0.5846,6.3984 l -0.1856,6.0947 l 0.1905,5.7770 l 0.5490,5.4516 l 0.8947,5.1237 l 1.2319,4.7972 l 1.5641,4.4749 l 1.8946,4.1590 l 2.2264,3.8509 l 2.5618,3.5515 l 2.9032,3.2610 l 3.2523,2.9795 l 3.6109,2.7066 l 3.9801,2.4417 l 4.3609,2.1840 l 4.7539,1.9322 l 5.1591,1.6850 l 5.5763,1.4410 l 6.0043,1.1982 l 6.4415,0.9546 l 6.8852,0.7079 l 7.3316,0.4555 l 7.7758,0.1943 l 8.2112,-0.0790 l 8.6293,-0.3683 l 9.0196,-0.6778 l 9.3688,-1.0126 l 9.6609,-1.3781 l 9.8765,-1.7802 l 9.9927,-2.2253 l 9.9830,-2.7201 l 9.8173,-3.2710 l 9.4629,-3.8834 l 8.8855,-4.5611 l 8.0517,-5.3045 l 6.9323,-6.1086 l 5.5071,-6.9610 l 3.7711,-7.8388 "/></g></g><g stroke-linejoin="round" fill-opacity="0.0" fill="rgb(0,0,0)" stroke="rgb(0,128,0)" stroke-linecap="round" stroke-miterlimit="10.0" stroke-opacity="1.0" stroke-width="0.9999999999999997"><defs><clipPath id="myClip10"><path d="M 29.6008,15.0000 v 555.0000 h 755.6197 v -555.0000 Z"/></clipPath></defs><g clip-path="url(#myClip10)"><path d="M 116.5089,445.8392 l -0.8219,5.2004 l -0.4201,5.0293 l -0.0384,4.8331 l 0.3269,4.6180 l 0.6790,4.3892 l 1.0210,4.1508 l 1.3555,3.9063 l 1.6850,3.6584 l 2.0115,3.4091 l 2.3370,3.1600 l 2.6628,2.9120 l 2.9900,2.6660 l 3.3196,2.4220 l 3.6520,2.1800 l 3.9872,1.9397 l 4.3249,1.7005 l 4.6641,1.4614 l 5.0035,1.2215 l 5.3408,0.9793 l 5.6733,0.7333 l 5.9971,0.4816 l 6.3076,0.2225 l 6.5989,-0.0466 l 6.8640,-0.3279 l 7.0944,-0.6241 l 7.2801,-0.9380 l 7.4095,-1.2724 l 7.4696,-1.6303 l 7.4457,-2.0141 l 7.3220,-2.4262 l 7.0819,-2.8678 l 6.7087,-3.3392 l 6.1867,-3.8385 l 5.5025,-4.3615 l 4.6474,-4.9004 l 3.6187,-5.4434 l 2.4226,-5.9736 l 1.0765,-6.4692 l -0.3901,-6.9030 l -1.9346,-7.2441 l -3.5024,-7.4596 l -5.0308,-7.5180 l -6.4534,-7.3932 l -7.7070,-7.0679 l -8.7385,-6.5381 l -9.5104,-5.8141 l -10.0048,-4.9208 l -10.2239,-3.8955 l -10.1880,-2.7836 l -9.9310,-1.6337 l -9.4949,-0.4929 l -8.9243,0.5975 l -8.2622,1.6045 l -7.5465,2.5046 l -6.8085,3.2834 l -6.0724,3.9351 l -5.3554,4.4604 l -4.6691,4.8652 l -4.0201,5.1587 l -3.4112,5.3522 l -2.8429,5.4579 l -2.3134,5.4881 l -1.8199,5.4545 l -1.3589,5.3681 l -0.9267,5.2387 l -0.5193,5.0750 l -0.1328,4.8845 l 0.2363,4.6737 l 0.5914,4.4478 l 0.9357,4.2115 l 1.2718,3.9683 l 1.6024,3.7210 l 1.9295,3.4719 l 2.2551,3.2226 l 2.5806,2.9743 l 2.9074,2.7277 l 3.2364,2.4832 l 3.5680,2.2408 l 3.9026,2.0001 l 4.2397,1.7607 l 4.5786,1.5217 l 4.9181,1.2821 l 5.2562,1.0405 l 5.5902,0.7957 l 5.9166,0.5456 l 6.2310,0.2886 l 6.5278,0.0222 l 6.8002,-0.2557 l 7.0402,-0.5479 l 7.2381,-0.8571 l 7.3829,-1.1861 l 7.4618,-1.5378 l 7.4605,-1.9149 l 7.3635,-2.3197 l 7.1543,-2.7538 l 6.8161,-3.2178 l 6.3329,-3.7103 l 5.6907,-4.2279 l 4.8791,-4.7637 "/></g></g><g stroke-linejoin="round" fill-opacity="0.0" fill="rgb(0,0,0)" stroke="rgb(255,0,0)" stroke-linecap="round" stroke-miterlimit="10.0" stroke-opacity="1.0" stroke-width="0.9999999999999997"><defs><clipPath id="myClip11"><path d="M 29.6008,15.0000 v 555.0000 h 755.6197 v -555.0000 Z"/></clipPath></defs><g clip-path="url(#myClip11)"><path d="M 68.1363,557.9929 l 3.6110,0.8489 l 3.9828,0.7628 l 4.3921,0.6838 l 4.8425,0.6111 l 5.3382,0.5439 l 5.8837,0.4815 l 6.4837,0.4232 l 7.1436,0.3683 l 7.8692,0.3160 l 8.6665,0.2658 l 9.5423,0.2167 l 10.5037,0.1680 l 11.5583,0.1186 l 12.7139,0.0674 l 13.9790,0.0129 l 15.3617,-0.0467 l 16.8703,-0.1136 l 18.5124,-0.1909 l 20.2944,-0.2828 l 22.2204,-0.3949 l 24.2907,-0.5353 l 26.4995,-0.7153 l 28.8310,-0.9514 l 31.2534,-1.2681 l 33.7102,-1.7021 l 36.1050,-2.3090 l 38.2784,-3.1749 l 39.9710,-4.4330 l 40.7672,-6.2906 l 40.0124,-9.0654 l 36.7088,-13.2284 l 29.4288,-19.4217 l 16.3844,-28.3626 l -4.0278,-40.4418 l -31.7686,-54.7878 l -62.9529,-68.0394 l -89.0829,-74.3817 l -101.0316,-68.8056 l -96.0263,-51.6978 l -79.5266,-29.0347 l -59.7775,-7.6122 l -42.3405,8.8151 l -29.1079,19.6645 l -19.8268,25.9438 l -13.5563,28.9911 l -9.3739,29.9345 l -6.5796,29.5818 l -4.6933,28.4695 l -3.4007,26.9403 l -2.4989,25.2088 l -1.8574,23.4077 l -1.3916,21.6173 l -1.0462,19.8854 l -0.7845,18.2390 l -0.5815,16.6922 l -0.4204,15.2509 l -0.2892,13.9157 l -0.1795,12.6842 l -0.0853,11.5521 l -0.0020,10.5138 l 0.0736,9.5636 l 0.1443,8.6952 l 0.2120,7.9025 l 0.2785,7.1798 l 0.3450,6.5212 l 0.4129,5.9216 l 0.4833,5.3759 l 0.5570,4.8796 l 0.6352,4.4282 l 0.7187,4.0178 l 0.8084,3.6449 l 0.9055,3.3060 l 1.0108,2.9981 l 1.1255,2.7183 l 1.2507,2.4642 l 1.3876,2.2332 l 1.5377,2.0234 l 1.7022,1.8327 l 1.8829,1.6594 l 2.0814,1.5018 l 2.2996,1.3584 l 2.5396,1.2279 l 2.8037,1.1090 l 3.0943,1.0006 l 3.4141,0.9017 l 3.7661,0.8111 l 4.1535,0.7282 l 4.5799,0.6520 l 5.0493,0.5817 l 5.5657,0.5166 l 6.1340,0.4561 l 6.7590,0.3993 l 7.4463,0.3456 l 8.2019,0.2943 l 9.0320,0.2447 l 9.9436,0.1959 l 10.9440,0.1470 l 12.0409,0.0969 l 13.2424,0.0445 "/></g></g><g stroke-linejoin="round" fill-opacity="0.0" fill="rgb(0,0,0)" stroke="rgb(238,130,238)" stroke-linecap="round" stroke-miterlimit="10.0" stroke-opacity="1.0" stroke-width="0.9999999999999997"><defs><clipPath id="myClip12"><path d="M 29.6008,15.0000 v 555.0000 h 755.6197 v -555.0000 Z"/></clipPath></defs><g clip-path="url(#myClip12)"><path d="M 105.7904,545.3998 l 6.2107,1.1426 l 6.8027,0.9931 l 7.4444,0.8495 l 8.1393,0.7099 l 8.8903,0.5724 l 9.7006,0.4348 l 10.5724,0.2945 l 11.5075,0.1486 l 12.5064,-0.0065 l 13.5678,-0.1751 l 14.6884,-0.3627 l 15.8612,-0.5762 l 17.0744,-0.8247 l 18.3100,-1.1199 l 19.5403,-1.4771 l 20.7252,-1.9171 l 21.8073,-2.4670 l 22.7053,-3.1634 l 23.3069,-4.0545 l 23.4588,-5.2034 l 22.9573,-6.6896 l 21.5412,-8.6096 l 18.8946,-11.0681 l 14.6716,-14.1575 l 8.5621,-17.9123 l 0.4198,-22.2314 l -9.5478,-26.7760 l -20.5848,-30.8884 l -31.3290,-33.6250 l -40.0665,-33.9991 l -45.3159,-31.3995 l -46.4510,-25.9500 l -43.9237,-18.5205 l -38.9381,-10.3599 l -32.8619,-2.6155 l -26.7734,3.9653 l -21.3076,9.0762 l -16.7201,12.7347 l -13.0259,15.1325 l -10.1223,16.5208 l -7.8686,17.1446 l -6.1267,17.2134 l -4.7782,16.8942 l -3.7281,16.3142 l -2.9028,15.5675 l -2.2463,14.7228 l -1.7166,13.8289 l -1.2823,12.9201 l -0.9196,12.0201 l -0.6106,11.1450 l -0.3416,10.3051 l -0.1023,9.5068 l 0.1158,8.7537 l 0.3190,8.0473 l 0.5126,7.3876 l 0.7011,6.7737 l 0.8880,6.2041 l 1.0764,5.6767 l 1.2694,5.1893 l 1.4693,4.7395 l 1.6786,4.3248 l 1.8997,3.9427 l 2.1348,3.5908 l 2.3861,3.2669 l 2.6560,2.9685 l 2.9468,2.6936 l 3.2610,2.4400 l 3.6011,2.2058 l 3.9698,1.9892 l 4.3699,1.7882 l 4.8043,1.6012 l 5.2761,1.4265 l 5.7884,1.2623 l 6.3446,1.1071 l 6.9479,0.9591 l 7.6017,0.8166 l 8.3094,0.6777 l 9.0741,0.5404 l 9.8985,0.4024 l 10.7850,0.2611 l 11.7349,0.1134 l 12.7486,-0.0444 l 13.8243,-0.2169 l 14.9578,-0.4099 l 16.1412,-0.6307 l 17.3616,-0.8889 l 18.5988,-1.1970 l 19.8227,-1.5715 l 20.9895,-2.0344 l 22.0369,-2.6149 l 22.8771,-3.3519 l 23.3892,-4.2970 l 23.4088,-5.5168 l 22.7193,-7.0951 l 21.0461,-9.1313 l 18.0627,-11.7300 l 13.4236,-14.9752 l 6.8432,-18.8777 l -1.7610,-23.2905 "/></g></g><g stroke-linejoin="round" fill-opacity="0.0" fill="rgb(0,0,0)" stroke="rgb(0,0,255)" stroke-linecap="round" stroke-miterlimit="10.0" stroke-opacity="1.0" stroke-width="0.9999999999999997"><defs><clipPath id="myClip13"><path d="M 29.6008,15.0000 v 555.0000 h 755.6197 v -555.0000 Z"/></clipPath></defs><g clip-path="url(#myClip13)"><path d="M 142.5478,532.2100 l 7.7486,0.8493 l 8.3667,0.6373 l 9.0125,0.4206 l 9.6829,0.1957 l 10.3731,-0.0416 l 11.0759,-0.2964 l 11.7810,-0.5746 l 12.4746,-0.8834 l 13.1382,-1.2315 l 13.7472,-1.6294 l 14.2698,-2.0898 l 14.6653,-2.6277 l 14.8824,-3.2611 l 14.8581,-4.0103 l 14.5169,-4.8978 l 13.7714,-5.9462 l 12.5259,-7.1756 l 10.6846,-8.5973 l 8.1653,-10.2057 l 4.9213,-11.9659 l 0.9707,-13.7999 l -3.5724,-15.5743 l -8.4747,-17.0972 l -13.3840,-18.1325 l -17.8689,-18.4394 l -21.4979,-17.8311 l -23.9393,-16.2362 l -25.0422,-13.7340 l -24.8640,-10.5446 l -23.6328,-6.9759 l -21.6685,-3.3505 l -19.2993,0.0577 l -16.8015,3.0585 l -14.3734,5.5511 l -12.1356,7.5095 l -10.1460,8.9600 l -8.4191,9.9592 l -6.9430,10.5765 l -5.6921,10.8827 l -4.6359,10.9435 l -3.7435,10.8165 l -2.9865,10.5496 l -2.3398,10.1823 l -1.7821,9.7460 l -1.2955,9.2652 l -0.8651,8.7590 l -0.4786,8.2419 l -0.1259,7.7247 l 0.2015,7.2153 l 0.5107,6.7196 l 0.8076,6.2413 l 1.0972,5.7830 l 1.3841,5.3463 l 1.6720,4.9318 l 1.9644,4.5397 l 2.2644,4.1695 l 2.5748,3.8205 l 2.8984,3.4918 l 3.2376,3.1822 l 3.5947,2.8902 l 3.9721,2.6145 l 4.3718,2.3535 l 4.7958,2.1056 l 5.2459,1.8689 l 5.7237,1.6417 l 6.2305,1.4220 l 6.7673,1.2077 l 7.3345,0.9964 l 7.9320,0.7857 l 8.5586,0.5725 l 9.2123,0.3538 l 9.8893,0.1256 l 10.5842,-0.1164 l 11.2888,-0.3776 l 11.9922,-0.6642 l 12.6789,-0.9838 l 13.3289,-1.3458 l 13.9156,-1.7611 l 14.4046,-2.2431 l 14.7522,-2.8078 l 14.9037,-3.4739 l 14.7924,-4.2624 l 14.3389,-5.1960 l 13.4529,-6.2972 l 12.0375,-7.5840 l 9.9992,-9.0636 l 7.2639,-10.7232 l 3.8011,-12.5162 l -0.3454,-14.3490 l -5.0271,-16.0703 l -9.9734,-17.4722 l -14.8020,-18.3119 l -19.0716,-18.3583 l -22.3702,-17.4534 l -24.4142,-15.5694 l -25.1157,-12.8314 l -24.5899,-9.4931 l -23.1020,-5.8745 l -20.9826,-2.2892 "/></g></g><g stroke-linejoin="round" fill-opacity="0.0" fill="rgb(0,0,0)" stroke="rgb(0,128,0)" stroke-linecap="round" stroke-miterlimit="10.0" stroke-opacity="1.0" stroke-width="0.9999999999999997"><defs><clipPath id="myClip14"><path d="M 29.6008,15.0000 v 555.0000 h 755.6197 v -555.0000 Z"/></clipPath></defs><g clip-path="url(#myClip14)"><path d="M 178.3940,518.4134 l 8.1804,-0.0589 l 8.6001,-0.3469 l 8.9928,-0.6548 l 9.3454,-0.9876 l 9.6422,-1.3507 l 9.8641,-1.7500 l 9.9882,-2.1918 l 9.9885,-2.6828 l 9.8351,-3.2294 l 9.4954,-3.8373 l 8.9351,-4.5103 l 8.1208,-5.2490 l 7.0227,-6.0491 l 5.6199,-6.8986 l 3.9060,-7.7756 l 1.8957,-8.6456 l -0.3684,-9.4600 l -2.8123,-10.1569 l -5.3301,-10.6643 l -7.7903,-10.9076 l -10.0494,-10.8207 l -11.9706,-10.3585 l -13.4439,-9.5078 l -14.4032,-8.2936 l -14.8344,-6.7777 l -14.7736,-5.0501 l -14.2948,-3.2150 l -13.4944,-1.3757 l -12.4741,0.3773 l -11.3277,1.9749 l -10.1329,3.3716 l -8.9485,4.5444 l -7.8146,5.4889 l -6.7557,6.2143 l -5.7835,6.7391 l -4.9012,7.0864 l -4.1059,7.2812 l -3.3913,7.3485 l -2.7492,7.3114 l -2.1706,7.1910 l -1.6467,7.0054 l -1.1689,6.7704 l -0.7294,6.4990 l -0.3211,6.2020 l 0.0623,5.8883 l 0.4263,5.5650 l 0.7760,5.2374 l 1.1157,4.9101 l 1.4492,4.5860 l 1.7800,4.2678 l 2.1110,3.9568 l 2.4449,3.6543 l 2.7840,3.3607 l 3.1302,3.0761 l 3.4854,2.8003 l 3.8508,2.5327 l 4.2275,2.2726 l 4.6162,2.0189 l 5.0172,1.7703 l 5.4303,1.5254 l 5.8548,1.2824 l 6.2890,1.0393 l 6.7308,0.7940 l 7.1767,0.5439 l 7.6224,0.2861 l 8.0617,0.0174 l 8.4869,-0.2659 l 8.8882,-0.5679 l 9.2533,-0.8933 l 9.5672,-1.2475 l 9.8118,-1.6362 l 9.9653,-2.0657 l 10.0024,-2.5425 l 9.8944,-3.0732 l 9.6093,-3.6638 l 9.1132,-4.3186 l 8.3719,-5.0394 l 7.3544,-5.8234 l 6.0367,-6.6611 l 4.4079,-7.5334 l 2.4762,-8.4095 l 0.2758,-9.2449 l -2.1279,-9.9810 l -4.6375,-10.5480 l -7.1276,-10.8710 l -9.4564,-10.8806 l -11.4829,-10.5244 l -13.0881,-9.7797 l -14.1924,-8.6608 l -14.7672,-7.2199 l -14.8357,-5.5405 l -14.4628,-3.7243 l -13.7407,-1.8764 l -12.7710,-0.0918 l -11.6507,1.5541 l -10.4625,3.0092 l -9.2705,4.2447 l -8.1198,5.2515 l -7.0386,6.0357 "/></g></g><g stroke-linejoin="round" fill-opacity="0.0" fill="rgb(0,0,0)" stroke="rgb(255,0,0)" stroke-linecap="round" stroke-miterlimit="10.0" stroke-opacity="1.0" stroke-width="0.9999999999999997"><defs><clipPath id="myClip15"><path d="M 29.6008,15.0000 v 555.0000 h 755.6197 v -555.0000 Z"/></clipPath></defs><g clip-path="url(#myClip15)"><path d="M 213.3149,504.0007 l 7.4680,-1.6055 l 7.4502,-1.9875 l 7.3338,-2.3976 l 7.1020,-2.8373 l 6.7382,-3.3067 l 6.2266,-3.8042 l 5.5537,-4.3258 l 4.7101,-4.8640 l 3.6930,-5.4072 l 2.5078,-5.9389 l 1.1709,-6.4376 l -0.2888,-6.8765 l -1.8296,-7.2248 l -3.3978,-7.4497 l -4.9309,-7.5196 l -6.3627,-7.4077 l -7.6294,-7.0962 l -8.6772,-6.5799 l -9.4672,-5.8682 l -9.9804,-4.9853 l -10.2175,-3.9674 l -10.1978,-2.8598 l -9.9544,-1.7110 l -9.5288,-0.5682 l -8.9659,0.5267 l -8.3087,1.5401 l -7.5955,2.4479 l -6.8582,3.2352 l -6.1213,3.8954 l -5.4026,4.4291 l -4.7140,4.8417 l -4.0623,5.1423 l -3.4508,5.3421 l -2.8797,5.4533 l -2.3477,5.4882 l -1.8519,5.4586 l -1.3889,5.3754 l -0.9548,5.2486 l -0.5459,5.0869 l -0.1581,4.8980 l 0.2120,4.6883 l 0.5680,4.4634 l 0.9129,4.2276 l 1.2495,3.9847 l 1.5803,3.7376 l 1.9076,3.4886 l 2.2332,3.2393 l 2.5588,2.9909 l 2.8855,2.7442 l 3.2143,2.4995 l 3.5457,2.2570 l 3.8801,2.0162 l 4.2170,1.7767 l 4.5559,1.5377 l 4.8954,1.2982 l 5.2336,1.0568 l 5.5680,0.8122 l 5.8950,0.5626 l 6.2104,0.3060 l 6.5085,0.0404 l 6.7828,-0.2367 l 7.0253,-0.5278 l 7.2264,-0.8358 l 7.3751,-1.1634 l 7.4588,-1.5135 l 7.4634,-1.8888 l 7.3733,-2.2916 l 7.1721,-2.7238 l 6.8431,-3.1857 l 6.3701,-3.6765 l 5.7389,-4.1925 l 4.9389,-4.7274 l 3.9653,-5.2707 l 2.8213,-5.8072 l 1.5205,-6.3165 l 0.0882,-6.7732 l -1.4368,-7.1474 l -3.0037,-7.4065 l -4.5518,-7.5182 l -6.0153,-7.4541 l -7.3292,-7.1939 l -8.4364,-6.7289 l -9.2940,-6.0648 l -9.8775,-5.2219 l -10.1830,-4.2341 l -10.2253,-3.1445 l -10.0345,-2.0015 l -9.6507,-0.8530 l -9.1182,0.2575 l -8.4808,1.2941 l -7.7785,2.2303 l -7.0446,3.0488 l -6.3057,3.7412 l -5.5811,4.3064 l -4.8841,4.7487 l -4.2227,5.0766 l -3.6009,5.3007 l -3.0198,5.4330 l -2.4781,5.4860 "/></g></g><g stroke-linejoin="bevel" fill-opacity="1.0" fill="rgb(255,0,0)" stroke="rgb(0,0,0)" stroke-linecap="butt" stroke-miterlimit="10.0" stroke-opacity="0.0" stroke-width="0.0"><defs><clipPath id="myClip16"><path d="M 29.6008,15.0000 v 555.0000 h 755.6197 v -555.0000 Z"/></clipPath></defs><g clip-path="url(#myClip16)"><path d="M 66.8631,544.1000 c 0.0000,1.1046 -0.8954,2.0000 -2.0000 2.0000c -1.1046,0.0000 -2.0000,-0.8954 -2.0000 -2.0000c -0.0000,-1.1046 0.8954,-2.0000 2.0000 -2.0000c 1.1046,-0.0000 2.0000,0.8954 2.0000 2.0000Z"/></g></g><g stroke-linejoin="miter" fill-opacity="0.0" fill="rgb(0,0,0)" stroke="rgb(0,0,0)" stroke-linecap="butt" stroke-miterlimit="10.0" stroke-opacity="0.0" stroke-width="0.0"><defs><clipPath id="myClip17"><path d="M 29.6008,15.0000 v 555.0000 h 755.6197 v -555.0000 Z"/></clipPath></defs><g clip-path="url(#myClip17)"><path d="M 66.8631,544.1000 c 0.0000,1.1046 -0.8954,2.0000 -2.0000 2.0000c -1.1046,0.0000 -2.0000,-0.8954 -2.0000 -2.0000c -0.0000,-1.1046 0.8954,-2.0000 2.0000 -2.0000c 1.1046,-0.0000 2.0000,0.8954 2.0000 2.0000"/></g></g><g stroke-linejoin="bevel" fill-opacity="1.0" fill="rgb(255,0,0)" stroke="rgb(0,0,0)" stroke-linecap="butt" stroke-miterlimit="10.0" stroke-opacity="0.0" stroke-width="0.0"><defs><clipPath id="myClip18"><path d="M 29.6008,15.0000 v 555.0000 h 755.6197 v -555.0000 Z"/></clipPath></defs><g clip-path="url(#myClip18)"><path d="M 102.1254,518.2000 c 0.0000,1.1046 -0.8954,2.0000 -2.0000 2.0000c -1.1046,0.0000 -2.0000,-0.8954 -2.0000 -2.0000c -0.0000,-1.1046 0.8954,-2.0000 2.0000 -2.0000c 1.1046,-0.0000 2.0000,0.8954 2.0000 2.0000Z"/></g></g><g stroke-linejoin="miter" fill-opacity="0.0" fill="rgb(0,0,0)" stroke="rgb(0,0,0)" stroke-linecap="butt" stroke-miterlimit="10.0" stroke-opacity="0.0" stroke-width="0.0"><defs><clipPath id="myClip19"><path d="M 29.6008,15.0000 v 555.0000 h 755.6197 v -555.0000 Z"/></clipPath></defs><g clip-path="url(#myClip19)"><path d="M 102.1254,518.2000 c 0.0000,1.1046 -0.8954,2.0000 -2.0000 2.0000c -1.1046,0.0000 -2.0000,-0.8954 -2.0000 -2.0000c -0.0000,-1.1046 0.8954,-2.0000 2.0000 -2.0000c 1.1046,-0.0000 2.0000,0.8954 2.0000 2.0000"/></g></g><g stroke-linejoin="bevel" fill-opacity="1.0" fill="rgb(255,0,0)" stroke="rgb(0,0,0)" stroke-linecap="butt" stroke-miterlimit="10.0" stroke-opacity="0.0" stroke-width="0.0"><defs><clipPath id="myClip20"><path d="M 29.6008,15.0000 v 555.0000 h 755.6197 v -555.0000 Z"/></clipPath></defs><g clip-path="url(#myClip20)"><path d="M 137.3876,492.3000 c 0.0000,1.1046 -0.8954,2.0000 -2.0000 2.0000c -1.1046,0.0000 -2.0000,-0.8954 -2.0000 -2.0000c -0.0000,-1.1046 0.8954,-2.0000 2.0000 -2.0000c 1.1046,-0.0000 2.0000,0.8954 2.0000 2.0000Z"/></g></g><g stroke-linejoin="miter" fill-opacity="0.0" fill="rgb(0,0,0)" stroke="rgb(0,0,0)" stroke-linecap="butt" stroke-miterlimit="10.0" stroke-opacity="0.0" stroke-width="0.0"><defs><clipPath id="myClip21"><path d="M 29.6008,15.0000 v 555.0000 h 755.6197 v -555.0000 Z"/></clipPath></defs><g clip-path="url(#myClip21)"><path d="M 137.3876,492.3000 c 0.0000,1.1046 -0.8954,2.0000 -2.0000 2.0000c -1.1046,0.0000 -2.0000,-0.8954 -2.0000 -2.0000c -0.0000,-1.1046 0.8954,-2.0000 2.0000 -2.0000c 1.1046,-0.0000 2.0000,0.8954 2.0000 2.0000"/></g></g><g stroke-linejoin="bevel" fill-opacity="1.0" fill="rgb(255,0,0)" stroke="rgb(0,0,0)" stroke-linecap="butt" stroke-miterlimit="10.0" stroke-opacity="0.0" stroke-width="0.0"><defs><clipPath id="myClip22"><path d="M 29.6008,15.0000 v 555.0000 h 755.6197 v -555.0000 Z"/></clipPath></defs><g clip-path="url(#myClip22)"><path d="M 172.6499,466.4000 c 0.0000,1.1046 -0.8954,2.0000 -2.0000 2.0000c -1.1046,0.0000 -2.0000,-0.8954 -2.0000 -2.0000c -0.0000,-1.1046 0.8954,-2.0000 2.0000 -2.0000c 1.1046,-0.0000 2.0000,0.8954 2.0000 2.0000Z"/></g></g><g stroke-linejoin="miter" fill-opacity="0.0" fill="rgb(0,0,0)" stroke="rgb(0,0,0)" stroke-linecap="butt" stroke-miterlimit="10.0" stroke-opacity="0.0" stroke-width="0.0"><defs><clipPath id="myClip23"><path d="M 29.6008,15.0000 v 555.0000 h 755.6197 v -555.0000 Z"/></clipPath></defs><g clip-path="url(#myClip23)"><path d="M 172.6499,466.4000 c 0.0000,1.1046 -0.8954,2.0000 -2.0000 2.0000c -1.1046,0.0000 -2.0000,-0.8954 -2.0000 -2.0000c -0.0000,-1.1046 0.8954,-2.0000 2.0000 -2.0000c 1.1046,-0.0000 2.0000,0.8954 2.0000 2.0000"/></g></g><g stroke-linejoin="bevel" fill-opacity="1.0" fill="rgb(255,0,0)" stroke="rgb(0,0,0)" stroke-linecap="butt" stroke-miterlimit="10.0" stroke-opacity="0.0" stroke-width="0.0"><defs><clipPath id="myClip24"><path d="M 29.6008,15.0000 v 555.0000 h 755.6197 v -555.0000 Z"/></clipPath></defs><g clip-path="url(#myClip24)"><path d="M 207.9121,440.5000 c 0.0000,1.1046 -0.8954,2.0000 -2.0000 2.0000c -1.1046,0.0000 -2.0000,-0.8954 -2.0000 -2.0000c -0.0000,-1.1046 0.8954,-2.0000 2.0000 -2.0000c 1.1046,-0.0000 2.0000,0.8954 2.0000 2.0000Z"/></g></g><g stroke-linejoin="miter" fill-opacity="0.0" fill="rgb(0,0,0)" stroke="rgb(0,0,0)" stroke-linecap="butt" stroke-miterlimit="10.0" stroke-opacity="0.0" stroke-width="0.0"><defs><clipPath id="myClip25"><path d="M 29.6008,15.0000 v 555.0000 h 755.6197 v -555.0000 Z"/></clipPath></defs><g clip-path="url(#myClip25)"><path d="M 207.9121,440.5000 c 0.0000,1.1046 -0.8954,2.0000 -2.0000 2.0000c -1.1046,0.0000 -2.0000,-0.8954 -2.0000 -2.0000c -0.0000,-1.1046 0.8954,-2.0000 2.0000 -2.0000c 1.1046,-0.0000 2.0000,0.8954 2.0000 2.0000"/></g></g><g stroke-linejoin="bevel" fill-opacity="1.0" fill="rgb(255,0,0)" stroke="rgb(0,0,0)" stroke-linecap="butt" stroke-miterlimit="10.0" stroke-opacity="0.0" stroke-width="0.0"><defs><clipPath id="myClip26"><path d="M 29.6008,15.0000 v 555.0000 h 755.6197 v -555.0000 Z"/></clipPath></defs><g clip-path="url(#myClip26)"><path d="M 49.2320,544.1000 c 0.0000,1.1046 -0.8954,2.0000 -2.0000 2.0000c -1.1046,0.0000 -2.0000,-0.8954 -2.0000 -2.0000c -0.0000,-1.1046 0.8954,-2.0000 2.0000 -2.0000c 1.1046,-0.0000 2.0000,0.8954 2.0000 2.0000Z"/></g></g><g stroke-linejoin="miter" fill-opacity="0.0" fill="rgb(0,0,0)" stroke="rgb(0,0,0)" stroke-linecap="butt" stroke-miterlimit="10.0" stroke-opacity="0.0" stroke-width="0.0"><defs><clipPath id="myClip27"><path d="M 29.6008,15.0000 v 555.0000 h 755.6197 v -555.0000 Z"/></clipPath></defs><g clip-path="url(#myClip27)"><path d="M 49.2320,544.1000 c 0.0000,1.1046 -0.8954,2.0000 -2.0000 2.0000c -1.1046,0.0000 -2.0000,-0.8954 -2.0000 -2.0000c -0.0000,-1.1046 0.8954,-2.0000 2.0000 -2.0000c 1.1046,-0.0000 2.0000,0.8954 2.0000 2.0000"/></g></g><g stroke-linejoin="bevel" fill-opacity="1.0" fill="rgb(255,0,0)" stroke="rgb(0,0,0)" stroke-linecap="butt" stroke-miterlimit="10.0" stroke-opacity="0.0" stroke-width="0.0"><defs><clipPath id="myClip28"><path d="M 29.6008,15.0000 v 555.0000 h 755.6197 v -555.0000 Z"/></clipPath></defs><g clip-path="url(#myClip28)"><path d="M 66.8631,518.2000 c 0.0000,1.1046 -0.8954,2.0000 -2.0000 2.0000c -1.1046,0.0000 -2.0000,-0.8954 -2.0000 -2.0000c -0.0000,-1.1046 0.8954,-2.0000 2.0000 -2.0000c 1.1046,-0.0000 2.0000,0.8954 2.0000 2.0000Z"/></g></g><g stroke-linejoin="miter" fill-opacity="0.0" fill="rgb(0,0,0)" stroke="rgb(0,0,0)" stroke-linecap="butt" stroke-miterlimit="10.0" stroke-opacity="0.0" stroke-width="0.0"><defs><clipPath id="myClip29"><path d="M 29.6008,15.0000 v 555.0000 h 755.6197 v -555.0000 Z"/></clipPath></defs><g clip-path="url(#myClip29)"><path d="M 66.8631,518.2000 c 0.0000,1.1046 -0.8954,2.0000 -2.0000 2.0000c -1.1046,0.0000 -2.0000,-0.8954 -2.0000 -2.0000c -0.0000,-1.1046 0.8954,-2.0000 2.0000 -2.0000c 1.1046,-0.0000 2.0000,0.8954 2.0000 2.0000"/></g></g><g stroke-linejoin="bevel" fill-opacity="1.0" fill="rgb(255,0,0)" stroke="rgb(0,0,0)" stroke-linecap="butt" stroke-miterlimit="10.0" stroke-opacity="0.0" stroke-width="0.0"><defs><clipPath id="myClip30"><path d="M 29.6008,15.0000 v 555.0000 h 755.6197 v -555.0000 Z"/></clipPath></defs><g clip-path="url(#myClip30)"><path d="M 84.4942,492.3000 c 0.0000,1.1046 -0.8954,2.0000 -2.0000 2.0000c -1.1046,0.0000 -2.0000,-0.8954 -2.0000 -2.0000c -0.0000,-1.1046 0.8954,-2.0000 2.0000 -2.0000c 1.1046,-0.0000 2.0000,0.8954 2.0000 2.0000Z"/></g></g><g stroke-linejoin="miter" fill-opacity="0.0" fill="rgb(0,0,0)" stroke="rgb(0,0,0)" stroke-linecap="butt" stroke-miterlimit="10.0" stroke-opacity="0.0" stroke-width="0.0"><defs><clipPath id="myClip31"><path d="M 29.6008,15.0000 v 555.0000 h 755.6197 v -555.0000 Z"/></clipPath></defs><g clip-path="url(#myClip31)"><path d="M 84.4942,492.3000 c 0.0000,1.1046 -0.8954,2.0000 -2.0000 2.0000c -1.1046,0.0000 -2.0000,-0.8954 -2.0000 -2.0000c -0.0000,-1.1046 0.8954,-2.0000 2.0000 -2.0000c 1.1046,-0.0000 2.0000,0.8954 2.0000 2.0000"/></g></g><g stroke-linejoin="bevel" fill-opacity="1.0" fill="rgb(255,0,0)" stroke="rgb(0,0,0)" stroke-linecap="butt" stroke-miterlimit="10.0" stroke-opacity="0.0" stroke-width="0.0"><defs><clipPath id="myClip32"><path d="M 29.6008,15.0000 v 555.0000 h 755.6197 v -555.0000 Z"/></clipPath></defs><g clip-path="url(#myClip32)"><path d="M 102.1254,466.4000 c 0.0000,1.1046 -0.8954,2.0000 -2.0000 2.0000c -1.1046,0.0000 -2.0000,-0.8954 -2.0000 -2.0000c -0.0000,-1.1046 0.8954,-2.0000 2.0000 -2.0000c 1.1046,-0.0000 2.0000,0.8954 2.0000 2.0000Z"/></g></g><g stroke-linejoin="miter" fill-opacity="0.0" fill="rgb(0,0,0)" stroke="rgb(0,0,0)" stroke-linecap="butt" stroke-miterlimit="10.0" stroke-opacity="0.0" stroke-width="0.0"><defs><clipPath id="myClip33"><path d="M 29.6008,15.0000 v 555.0000 h 755.6197 v -555.0000 Z"/></clipPath></defs><g clip-path="url(#myClip33)"><path d="M 102.1254,466.4000 c 0.0000,1.1046 -0.8954,2.0000 -2.0000 2.0000c -1.1046,0.0000 -2.0000,-0.8954 -2.0000 -2.0000c -0.0000,-1.1046 0.8954,-2.0000 2.0000 -2.0000c 1.1046,-0.0000 2.0000,0.8954 2.0000 2.0000"/></g></g><g stroke-linejoin="bevel" fill-opacity="1.0" fill="rgb(255,0,0)" stroke="rgb(0,0,0)" stroke-linecap="butt" stroke-miterlimit="10.0" stroke-opacity="0.0" stroke-width="0.0"><defs><clipPath id="myClip34"><path d="M 29.6008,15.0000 v 555.0000 h 755.6197 v -555.0000 Z"/></clipPath></defs><g clip-path="url(#myClip34)"><path d="M 119.7565,440.5000 c 0.0000,1.1046 -0.8954,2.0000 -2.0000 2.0000c -1.1046,0.0000 -2.0000,-0.8954 -2.0000 -2.0000c -0.0000,-1.1046 0.8954,-2.0000 2.0000 -2.0000c 1.1046,-0.0000 2.0000,0.8954 2.0000 2.0000Z"/></g></g><g stroke-linejoin="miter" fill-opacity="0.0" fill="rgb(0,0,0)" stroke="rgb(0,0,0)" stroke-linecap="butt" stroke-miterlimit="10.0" stroke-opacity="0.0" stroke-width="0.0"><defs><clipPath id="myClip35"><path d="M 29.6008,15.0000 v 555.0000 h 755.6197 v -555.0000 Z"/></clipPath></defs><g clip-path="url(#myClip35)"><path d="M 119.7565,440.5000 c 0.0000,1.1046 -0.8954,2.0000 -2.0000 2.0000c -1.1046,0.0000 -2.0000,-0.8954 -2.0000 -2.0000c -0.0000,-1.1046 0.8954,-2.0000 2.0000 -2.0000c 1.1046,-0.0000 2.0000,0.8954 2.0000 2.0000"/></g></g><g stroke-linejoin="bevel" fill-opacity="1.0" fill="rgb(255,0,0)" stroke="rgb(0,0,0)" stroke-linecap="butt" stroke-miterlimit="10.0" stroke-opacity="0.0" stroke-width="0.0"><defs><clipPath id="myClip36"><path d="M 29.6008,15.0000 v 555.0000 h 755.6197 v -555.0000 Z"/></clipPath></defs><g clip-path="url(#myClip36)"><path d="M 66.8631,557.0500 c 0.0000,1.1046 -0.8954,2.0000 -2.0000 2.0000c -1.1046,0.0000 -2.0000,-0.8954 -2.0000 -2.0000c -0.0000,-1.1046 0.8954,-2.0000 2.0000 -2.0000c 1.1046,-0.0000 2.0000,0.8954 2.0000 2.0000Z"/></g></g><g stroke-linejoin="miter" fill-opacity="0.0" fill="rgb(0,0,0)" stroke="rgb(0,0,0)" stroke-linecap="butt" stroke-miterlimit="10.0" stroke-opacity="0.0" stroke-width="0.0"><defs><clipPath id="myClip37"><path d="M 29.6008,15.0000 v 555.0000 h 755.6197 v -555.0000 Z"/></clipPath></defs><g clip-path="url(#myClip37)"><path d="M 66.8631,557.0500 c 0.0000,1.1046 -0.8954,2.0000 -2.0000 2.0000c -1.1046,0.0000 -2.0000,-0.8954 -2.0000 -2.0000c -0.0000,-1.1046 0.8954,-2.0000 2.0000 -2.0000c 1.1046,-0.0000 2.0000,0.8954 2.0000 2.0000"/></g></g><g stroke-linejoin="bevel" fill-opacity="1.0" fill="rgb(255,0,0)" stroke="rgb(0,0,0)" stroke-linecap="butt" stroke-miterlimit="10.0" stroke-opacity="0.0" stroke-width="0.0"><defs><clipPath id="myClip38"><path d="M 29.6008,15.0000 v 555.0000 h 755.6197 v -555.0000 Z"/></clipPath></defs><g clip-path="url(#myClip38)"><path d="M 102.1254,544.1000 c 0.0000,1.1046 -0.8954,2.0000 -2.0000 2.0000c -1.1046,0.0000 -2.0000,-0.8954 -2.0000 -2.0000c -0.0000,-1.1046 0.8954,-2.0000 2.0000 -2.0000c 1.1046,-0.0000 2.0000,0.8954 2.0000 2.0000Z"/></g></g><g stroke-linejoin="miter" fill-opacity="0.0" fill="rgb(0,0,0)" stroke="rgb(0,0,0)" stroke-linecap="butt" stroke-miterlimit="10.0" stroke-opacity="0.0" stroke-width="0.0"><defs><clipPath id="myClip39"><path d="M 29.6008,15.0000 v 555.0000 h 755.6197 v -555.0000 Z"/></clipPath></defs><g clip-path="url(#myClip39)"><path d="M 102.1254,544.1000 c 0.0000,1.1046 -0.8954,2.0000 -2.0000 2.0000c -1.1046,0.0000 -2.0000,-0.8954 -2.0000 -2.0000c -0.0000,-1.1046 0.8954,-2.0000 2.0000 -2.0000c 1.1046,-0.0000 2.0000,0.8954 2.0000 2.0000"/></g></g><g stroke-linejoin="bevel" fill-opacity="1.0" fill="rgb(255,0,0)" stroke="rgb(0,0,0)" stroke-linecap="butt" stroke-miterlimit="10.0" stroke-opacity="0.0" stroke-width="0.0"><defs><clipPath id="myClip40"><path d="M 29.6008,15.0000 v 555.0000 h 755.6197 v -555.0000 Z"/></clipPath></defs><g clip-path="url(#myClip40)"><path d="M 137.3876,531.1500 c 0.0000,1.1046 -0.8954,2.0000 -2.0000 2.0000c -1.1046,0.0000 -2.0000,-0.8954 -2.0000 -2.0000c -0.0000,-1.1046 0.8954,-2.0000 2.0000 -2.0000c 1.1046,-0.0000 2.0000,0.8954 2.0000 2.0000Z"/></g></g><g stroke-linejoin="miter" fill-opacity="0.0" fill="rgb(0,0,0)" stroke="rgb(0,0,0)" stroke-linecap="butt" stroke-miterlimit="10.0" stroke-opacity="0.0" stroke-width="0.0"><defs><clipPath id="myClip41"><path d="M 29.6008,15.0000 v 555.0000 h 755.6197 v -555.0000 Z"/></clipPath></defs><g clip-path="url(#myClip41)"><path d="M 137.3876,531.1500 c 0.0000,1.1046 -0.8954,2.0000 -2.0000 2.0000c -1.1046,0.0000 -2.0000,-0.8954 -2.0000 -2.0000c -0.0000,-1.1046 0.8954,-2.0000 2.0000 -2.0000c 1.1046,-0.0000 2.0000,0.8954 2.0000 2.0000"/></g></g><g stroke-linejoin="bevel" fill-opacity="1.0" fill="rgb(255,0,0)" stroke="rgb(0,0,0)" stroke-linecap="butt" stroke-miterlimit="10.0" stroke-opacity="0.0" stroke-width="0.0"><defs><clipPath id="myClip42"><path d="M 29.6008,15.0000 v 555.0000 h 755.6197 v -555.0000 Z"/></clipPath></defs><g clip-path="url(#myClip42)"><path d="M 172.6499,518.2000 c 0.0000,1.1046 -0.8954,2.0000 -2.0000 2.0000c -1.1046,0.0000 -2.0000,-0.8954 -2.0000 -2.0000c -0.0000,-1.1046 0.8954,-2.0000 2.0000 -2.0000c 1.1046,-0.0000 2.0000,0.8954 2.0000 2.0000Z"/></g></g><g stroke-linejoin="miter" fill-opacity="0.0" fill="rgb(0,0,0)" stroke="rgb(0,0,0)" stroke-linecap="butt" stroke-miterlimit="10.0" stroke-opacity="0.0" stroke-width="0.0"><defs><clipPath id="myClip43"><path d="M 29.6008,15.0000 v 555.0000 h 755.6197 v -555.0000 Z"/></clipPath></defs><g clip-path="url(#myClip43)"><path d="M 172.6499,518.2000 c 0.0000,1.1046 -0.8954,2.0000 -2.0000 2.0000c -1.1046,0.0000 -2.0000,-0.8954 -2.0000 -2.0000c -0.0000,-1.1046 0.8954,-2.0000 2.0000 -2.0000c 1.1046,-0.0000 2.0000,0.8954 2.0000 2.0000"/></g></g><g stroke-linejoin="bevel" fill-opacity="1.0" fill="rgb(255,0,0)" stroke="rgb(0,0,0)" stroke-linecap="butt" stroke-miterlimit="10.0" stroke-opacity="0.0" stroke-width="0.0"><defs><clipPath id="myClip44"><path d="M 29.6008,15.0000 v 555.0000 h 755.6197 v -555.0000 Z"/></clipPath></defs><g clip-path="url(#myClip44)"><path d="M 207.9121,505.2500 c 0.0000,1.1046 -0.8954,2.0000 -2.0000 2.0000c -1.1046,0.0000 -2.0000,-0.8954 -2.0000 -2.0000c -0.0000,-1.1046 0.8954,-2.0000 2.0000 -2.0000c 1.1046,-0.0000 2.0000,0.8954 2.0000 2.0000Z"/></g></g><g stroke-linejoin="miter" fill-opacity="0.0" fill="rgb(0,0,0)" stroke="rgb(0,0,0)" stroke-linecap="butt" stroke-miterlimit="10.0" stroke-opacity="0.0" stroke-width="0.0"><defs><clipPath id="myClip45"><path d="M 29.6008,15.0000 v 555.0000 h 755.6197 v -555.0000 Z"/></clipPath></defs><g clip-path="url(#myClip45)"><path d="M 207.9121,505.2500 c 0.0000,1.1046 -0.8954,2.0000 -2.0000 2.0000c -1.1046,0.0000 -2.0000,-0.8954 -2.0000 -2.0000c -0.0000,-1.1046 0.8954,-2.0000 2.0000 -2.0000c 1.1046,-0.0000 2.0000,0.8954 2.0000 2.0000"/></g></g><g stroke-linejoin="miter" fill-opacity="0.0" fill="rgb(0,0,0)" stroke="rgb(0,0,0)" stroke-linecap="square" stroke-miterlimit="10.0" stroke-opacity="1.0" stroke-width="0.9999999999999997"><path d="M 29.6008,570.0000 v -555.0000 "/></g><g stroke-linejoin="miter" fill-opacity="0.0" fill="rgb(0,0,0)" stroke="rgb(0,0,0)" stroke-linecap="butt" stroke-miterlimit="10.0" stroke-opacity="1.0" stroke-width="0.9999999999999997"><path d="M 29.6008,570.0000 h 2.0000 "/></g><g stroke-linejoin="miter" fill-opacity="0.0" fill="rgb(0,0,0)" stroke="rgb(0,0,0)" stroke-linecap="butt" stroke-miterlimit="10.0" stroke-opacity="1.0" stroke-width="0.9999999999999997"><path d="M 29.6008,558.9000 h 2.0000 "/></g><g stroke-linejoin="miter" fill-opacity="0.0" fill="rgb(0,0,0)" stroke="rgb(0,0,0)" stroke-linecap="butt" stroke-miterlimit="10.0" stroke-opacity="1.0" stroke-width="0.9999999999999997"><path d="M 29.6008,547.8000 h 2.0000 "/></g><g stroke-linejoin="miter" fill-opacity="0.0" fill="rgb(0,0,0)" stroke="rgb(0,0,0)" stroke-linecap="butt" stroke-miterlimit="10.0" stroke-opacity="1.0" stroke-width="0.9999999999999997"><path d="M 29.6008,536.7000 h 2.0000 "/></g><g stroke-linejoin="miter" fill-opacity="0.0" fill="rgb(0,0,0)" stroke="rgb(0,0,0)" stroke-linecap="butt" stroke-miterlimit="10.0" stroke-opacity="1.0" stroke-width="0.9999999999999997"><path d="M 29.6008,525.6000 h 2.0000 "/></g><g stroke-linejoin="miter" fill-opacity="0.0" fill="rgb(0,0,0)" stroke="rgb(0,0,0)" stroke-linecap="butt" stroke-miterlimit="10.0" stroke-opacity="1.0" stroke-width="0.9999999999999997"><path d="M 29.6008,514.5000 h 2.0000 "/></g><g stroke-linejoin="miter" fill-opacity="0.0" fill="rgb(0,0,0)" stroke="rgb(0,0,0)" stroke-linecap="butt" stroke-miterlimit="10.0" stroke-opacity="1.0" stroke-width="0.9999999999999997"><path d="M 29.6008,503.4000 h 2.0000 "/></g><g stroke-linejoin="miter" fill-opacity="0.0" fill="rgb(0,0,0)" stroke="rgb(0,0,0)" stroke-linecap="butt" stroke-miterlimit="10.0" stroke-opacity="1.0" stroke-width="0.9999999999999997"><path d="M 29.6008,492.3000 h 2.0000 "/></g><g stroke-linejoin="miter" fill-opacity="0.0" fill="rgb(0,0,0)" stroke="rgb(0,0,0)" stroke-linecap="butt" stroke-miterlimit="10.0" stroke-opacity="1.0" stroke-width="0.9999999999999997"><path d="M 29.6008,481.2000 h 2.0000 "/></g><g stroke-linejoin="miter" fill-opacity="0.0" fill="rgb(0,0,0)" stroke="rgb(0,0,0)" stroke-linecap="butt" stroke-miterlimit="10.0" stroke-opacity="1.0" stroke-width="0.9999999999999997"><path d="M 29.6008,470.1000 h 2.0000 "/></g><g stroke-linejoin="miter" fill-opacity="0.0" fill="rgb(0,0,0)" stroke="rgb(0,0,0)" stroke-linecap="butt" stroke-miterlimit="10.0" stroke-opacity="1.0" stroke-width="0.9999999999999997"><path d="M 29.6008,459.0000 h 2.0000 "/></g><g stroke-linejoin="miter" fill-opacity="0.0" fill="rgb(0,0,0)" stroke="rgb(0,0,0)" stroke-linecap="butt" stroke-miterlimit="10.0" stroke-opacity="1.0" stroke-width="0.9999999999999997"><path d="M 29.6008,447.9000 h 2.0000 "/></g><g stroke-linejoin="miter" fill-opacity="0.0" fill="rgb(0,0,0)" stroke="rgb(0,0,0)" stroke-linecap="butt" stroke-miterlimit="10.0" stroke-opacity="1.0" stroke-width="0.9999999999999997"><path d="M 29.6008,436.8000 h 2.0000 "/></g><g stroke-linejoin="miter" fill-opacity="0.0" fill="rgb(0,0,0)" stroke="rgb(0,0,0)" stroke-linecap="butt" stroke-miterlimit="10.0" stroke-opacity="1.0" stroke-width="0.9999999999999997"><path d="M 29.6008,425.7000 h 2.0000 "/></g><g stroke-linejoin="miter" fill-opacity="0.0" fill="rgb(0,0,0)" stroke="rgb(0,0,0)" stroke-linecap="butt" stroke-miterlimit="10.0" stroke-opacity="1.0" stroke-width="0.9999999999999997"><path d="M 29.6008,414.6000 h 2.0000 "/></g><g stroke-linejoin="miter" fill-opacity="0.0" fill="rgb(0,0,0)" stroke="rgb(0,0,0)" stroke-linecap="butt" stroke-miterlimit="10.0" stroke-opacity="1.0" stroke-width="0.9999999999999997"><path d="M 29.6008,403.5000 h 2.0000 "/></g><g stroke-linejoin="miter" fill-opacity="0.0" fill="rgb(0,0,0)" stroke="rgb(0,0,0)" stroke-linecap="butt" stroke-miterlimit="10.0" stroke-opacity="1.0" stroke-width="0.9999999999999997"><path d="M 29.6008,392.4000 h 2.0000 "/></g><g stroke-linejoin="miter" fill-opacity="0.0" fill="rgb(0,0,0)" stroke="rgb(0,0,0)" stroke-linecap="butt" stroke-miterlimit="10.0" stroke-opacity="1.0" stroke-width="0.9999999999999997"><path d="M 29.6008,381.3000 h 2.0000 "/></g><g stroke-linejoin="miter" fill-opacity="0.0" fill="rgb(0,0,0)" stroke="rgb(0,0,0)" stroke-linecap="butt" stroke-miterlimit="10.0" stroke-opacity="1.0" stroke-width="0.9999999999999997"><path d="M 29.6008,370.2000 h 2.0000 "/></g><g stroke-linejoin="miter" fill-opacity="0.0" fill="rgb(0,0,0)" stroke="rgb(0,0,0)" stroke-linecap="butt" stroke-miterlimit="10.0" stroke-opacity="1.0" stroke-width="0.9999999999999997"><path d="M 29.6008,359.1000 h 2.0000 "/></g><g stroke-linejoin="miter" fill-opacity="0.0" fill="rgb(0,0,0)" stroke="rgb(0,0,0)" stroke-linecap="butt" stroke-miterlimit="10.0" stroke-opacity="1.0" stroke-width="0.9999999999999997"><path d="M 29.6008,348.0000 h 2.0000 "/></g><g stroke-linejoin="miter" fill-opacity="0.0" fill="rgb(0,0,0)" stroke="rgb(0,0,0)" stroke-linecap="butt" stroke-miterlimit="10.0" stroke-opacity="1.0" stroke-width="0.9999999999999997"><path d="M 29.6008,336.9000 h 2.0000 "/></g><g stroke-linejoin="miter" fill-opacity="0.0" fill="rgb(0,0,0)" stroke="rgb(0,0,0)" stroke-linecap="butt" stroke-miterlimit="10.0" stroke-opacity="1.0" stroke-width="0.9999999999999997"><path d="M 29.6008,325.8000 h 2.0000 "/></g><g stroke-linejoin="miter" fill-opacity="0.0" fill="rgb(0,0,0)" stroke="rgb(0,0,0)" stroke-linecap="butt" stroke-miterlimit="10.0" stroke-opacity="1.0" stroke-width="0.9999999999999997"><path d="M 29.6008,314.7000 h 2.0000 "/></g><g stroke-linejoin="miter" fill-opacity="0.0" fill="rgb(0,0,0)" stroke="rgb(0,0,0)" stroke-linecap="butt" stroke-miterlimit="10.0" stroke-opacity="1.0" stroke-width="0.9999999999999997"><path d="M 29.6008,303.6000 h 2.0000 "/></g><g stroke-linejoin="miter" fill-opacity="0.0" fill="rgb(0,0,0)" stroke="rgb(0,0,0)" stroke-linecap="butt" stroke-miterlimit="10.0" stroke-opacity="1.0" stroke-width="0.9999999999999997"><path d="M 29.6008,292.5000 h 2.0000 "/></g><g stroke-linejoin="miter" fill-opacity="0.0" fill="rgb(0,0,0)" stroke="rgb(0,0,0)" stroke-linecap="butt" stroke-miterlimit="10.0" stroke-opacity="1.0" stroke-width="0.9999999999999997"><path d="M 29.6008,281.4000 h 2.0000 "/></g><g stroke-linejoin="miter" fill-opacity="0.0" fill="rgb(0,0,0)" stroke="rgb(0,0,0)" stroke-linecap="butt" stroke-miterlimit="10.0" stroke-opacity="1.0" stroke-width="0.9999999999999997"><path d="M 29.6008,270.3000 h 2.0000 "/></g><g stroke-linejoin="miter" fill-opacity="0.0" fill="rgb(0,0,0)" stroke="rgb(0,0,0)" stroke-linecap="butt" stroke-miterlimit="10.0" stroke-opacity="1.0" stroke-width="0.9999999999999997"><path d="M 29.6008,259.2000 h 2.0000 "/></g><g stroke-linejoin="miter" fill-opacity="0.0" fill="rgb(0,0,0)" stroke="rgb(0,0,0)" stroke-linecap="butt" stroke-miterlimit="10.0" stroke-opacity="1.0" stroke-width="0.9999999999999997"><path d="M 29.6008,248.1000 h 2.0000 "/></g><g stroke-linejoin="miter" fill-opacity="0.0" fill="rgb(0,0,0)" stroke="rgb(0,0,0)" stroke-linecap="butt" stroke-miterlimit="10.0" stroke-opacity="1.0" stroke-width="0.9999999999999997"><path d="M 29.6008,237.0000 h 2.0000 "/></g><g stroke-linejoin="miter" fill-opacity="0.0" fill="rgb(0,0,0)" stroke="rgb(0,0,0)" stroke-linecap="butt" stroke-miterlimit="10.0" stroke-opacity="1.0" stroke-width="0.9999999999999997"><path d="M 29.6008,225.9000 h 2.0000 "/></g><g stroke-linejoin="miter" fill-opacity="0.0" fill="rgb(0,0,0)" stroke="rgb(0,0,0)" stroke-linecap="butt" stroke-miterlimit="10.0" stroke-opacity="1.0" stroke-width="0.9999999999999997"><path d="M 29.6008,214.8000 h 2.0000 "/></g><g stroke-linejoin="miter" fill-opacity="0.0" fill="rgb(0,0,0)" stroke="rgb(0,0,0)" stroke-linecap="butt" stroke-miterlimit="10.0" stroke-opacity="1.0" stroke-width="0.9999999999999997"><path d="M 29.6008,203.7000 h 2.0000 "/></g><g stroke-linejoin="miter" fill-opacity="0.0" fill="rgb(0,0,0)" stroke="rgb(0,0,0)" stroke-linecap="butt" stroke-miterlimit="10.0" stroke-opacity="1.0" stroke-width="0.9999999999999997"><path d="M 29.6008,192.6000 h 2.0000 "/></g><g stroke-linejoin="miter" fill-opacity="0.0" fill="rgb(0,0,0)" stroke="rgb(0,0,0)" stroke-linecap="butt" stroke-miterlimit="10.0" stroke-opacity="1.0" stroke-width="0.9999999999999997"><path d="M 29.6008,181.5000 h 2.0000 "/></g><g stroke-linejoin="miter" fill-opacity="0.0" fill="rgb(0,0,0)" stroke="rgb(0,0,0)" stroke-linecap="butt" stroke-miterlimit="10.0" stroke-opacity="1.0" stroke-width="0.9999999999999997"><path d="M 29.6008,170.4000 h 2.0000 "/></g><g stroke-linejoin="miter" fill-opacity="0.0" fill="rgb(0,0,0)" stroke="rgb(0,0,0)" stroke-linecap="butt" stroke-miterlimit="10.0" stroke-opacity="1.0" stroke-width="0.9999999999999997"><path d="M 29.6008,159.3000 h 2.0000 "/></g><g stroke-linejoin="miter" fill-opacity="0.0" fill="rgb(0,0,0)" stroke="rgb(0,0,0)" stroke-linecap="butt" stroke-miterlimit="10.0" stroke-opacity="1.0" stroke-width="0.9999999999999997"><path d="M 29.6008,148.2000 h 2.0000 "/></g><g stroke-linejoin="miter" fill-opacity="0.0" fill="rgb(0,0,0)" stroke="rgb(0,0,0)" stroke-linecap="butt" stroke-miterlimit="10.0" stroke-opacity="1.0" stroke-width="0.9999999999999997"><path d="M 29.6008,137.1000 h 2.0000 "/></g><g stroke-linejoin="miter" fill-opacity="0.0" fill="rgb(0,0,0)" stroke="rgb(0,0,0)" stroke-linecap="butt" stroke-miterlimit="10.0" stroke-opacity="1.0" stroke-width="0.9999999999999997"><path d="M 29.6008,126.0000 h 2.0000 "/></g><g stroke-linejoin="miter" fill-opacity="0.0" fill="rgb(0,0,0)" stroke="rgb(0,0,0)" stroke-linecap="butt" stroke-miterlimit="10.0" stroke-opacity="1.0" stroke-width="0.9999999999999997"><path d="M 29.6008,114.9000 h 2.0000 "/></g><g stroke-linejoin="miter" fill-opacity="0.0" fill="rgb(0,0,0)" stroke="rgb(0,0,0)" stroke-linecap="butt" stroke-miterlimit="10.0" stroke-opacity="1.0" stroke-width="0.9999999999999997"><path d="M 29.6008,103.8000 h 2.0000 "/></g><g stroke-linejoin="miter" fill-opacity="0.0" fill="rgb(0,0,0)" stroke="rgb(0,0,0)" stroke-linecap="butt" stroke-miterlimit="10.0" stroke-opacity="1.0" stroke-width="0.9999999999999997"><path d="M 29.6008,92.7000 h 2.0000 "/></g><g stroke-linejoin="miter" fill-opacity="0.0" fill="rgb(0,0,0)" stroke="rgb(0,0,0)" stroke-linecap="butt" stroke-miterlimit="10.0" stroke-opacity="1.0" stroke-width="0.9999999999999997"><path d="M 29.6008,81.6000 h 2.0000 "/></g><g stroke-linejoin="miter" fill-opacity="0.0" fill="rgb(0,0,0)" stroke="rgb(0,0,0)" stroke-linecap="butt" stroke-miterlimit="10.0" stroke-opacity="1.0" stroke-width="0.9999999999999997"><path d="M 29.6008,70.5000 h 2.0000 "/></g><g stroke-linejoin="miter" fill-opacity="0.0" fill="rgb(0,0,0)" stroke="rgb(0,0,0)" stroke-linecap="butt" stroke-miterlimit="10.0" stroke-opacity="1.0" stroke-width="0.9999999999999997"><path d="M 29.6008,59.4000 h 2.0000 "/></g><g stroke-linejoin="miter" fill-opacity="0.0" fill="rgb(0,0,0)" stroke="rgb(0,0,0)" stroke-linecap="butt" stroke-miterlimit="10.0" stroke-opacity="1.0" stroke-width="0.9999999999999997"><path d="M 29.6008,48.3000 h 2.0000 "/></g><g stroke-linejoin="miter" fill-opacity="0.0" fill="rgb(0,0,0)" stroke="rgb(0,0,0)" stroke-linecap="butt" stroke-miterlimit="10.0" stroke-opacity="1.0" stroke-width="0.9999999999999997"><path d="M 29.6008,37.2000 h 2.0000 "/></g><g stroke-linejoin="miter" fill-opacity="0.0" fill="rgb(0,0,0)" stroke="rgb(0,0,0)" stroke-linecap="butt" stroke-miterlimit="10.0" stroke-opacity="1.0" stroke-width="0.9999999999999997"><path d="M 29.6008,26.1000 h 2.0000 "/></g><g stroke-linejoin="miter" fill-opacity="0.0" fill="rgb(0,0,0)" stroke="rgb(0,0,0)" stroke-linecap="butt" stroke-miterlimit="10.0" stroke-opacity="1.0" stroke-width="0.9999999999999997"><path d="M 29.6008,15.0000 h 2.0000 "/></g><g stroke-linejoin="miter" fill-opacity="0.0" fill="rgb(0,0,0)" stroke="rgb(0,0,0)" stroke-linecap="butt" stroke-miterlimit="10.0" stroke-opacity="1.0" stroke-width="0.9999999999999997"><path d="M 29.6008,570.0000 h 5.0000 "/></g><g stroke-linejoin="miter" fill-opacity="0.0" fill="rgb(0,0,0)" stroke="rgb(0,0,0)" stroke-linecap="butt" stroke-miterlimit="10.0" stroke-opacity="1.0" stroke-width="0.9999999999999997"><path d="M 29.6008,459.0000 h 5.0000 "/></g><g stroke-linejoin="miter" fill-opacity="0.0" fill="rgb(0,0,0)" stroke="rgb(0,0,0)" stroke-linecap="butt" stroke-miterlimit="10.0" stroke-opacity="1.0" stroke-width="0.9999999999999997"><path d="M 29.6008,348.0000 h 5.0000 "/></g><g stroke-linejoin="miter" fill-opacity="0.0" fill="rgb(0,0,0)" stroke="rgb(0,0,0)" stroke-linecap="butt" stroke-miterlimit="10.0" stroke-opacity="1.0" stroke-width="0.9999999999999997"><path d="M 29.6008,237.0000 h 5.0000 "/></g><g stroke-linejoin="miter" fill-opacity="0.0" fill="rgb(0,0,0)" stroke="rgb(0,0,0)" stroke-linecap="butt" stroke-miterlimit="10.0" stroke-opacity="1.0" stroke-width="0.9999999999999997"><path d="M 29.6008,126.0000 h 5.0000 "/></g><g stroke-linejoin="miter" fill-opacity="0.0" fill="rgb(0,0,0)" stroke="rgb(0,0,0)" stroke-linecap="butt" stroke-miterlimit="10.0" stroke-opacity="1.0" stroke-width="0.9999999999999997"><path d="M 29.6008,15.0000 h 5.0000 "/></g><g stroke-linejoin="bevel" fill-opacity="1.0" fill="rgb(0,0,0)" stroke="rgb(0,0,0)" stroke-linecap="butt" stroke-miterlimit="10.0" stroke-opacity="0.0" stroke-width="0.0"><path d="M 15.3046,573.4454 ZM 17.9202,573.5714 c -1.0189,-0.0000 -1.5861,-0.9034 -1.5861 -0.9034c -0.5672,-0.9034 -0.5672,-2.5945 -0.5672 -2.5945c 0.0000,-1.6912 0.5672,-2.5735 0.5672 -2.5735c 0.5672,-0.8824 1.5861,-0.8824 1.5861 -0.8824c 1.0084,0.0000 1.5756,0.8824 1.5756 0.8824c 0.5672,0.8824 0.5672,2.5735 0.5672 2.5735c 0.0000,1.6912 -0.5672,2.5945 -0.5672 2.5945c -0.5672,0.9034 -1.5756,0.9034 -1.5756 0.9034ZM 17.9202,573.5714 ZM 17.9202,572.8782 c 0.2941,0.0000 0.5305,-0.1628 0.5305 -0.1628c 0.2363,-0.1628 0.4097,-0.5042 0.4097 -0.5042c 0.1733,-0.3414 0.2679,-0.8718 0.2679 -0.8718c 0.0945,-0.5305 0.0945,-1.2658 0.0945 -1.2658c 0.0000,-0.7353 -0.0945,-1.2605 -0.0945 -1.2605c -0.0945,-0.5252 -0.2679,-0.8561 -0.2679 -0.8561c -0.1733,-0.3309 -0.4097,-0.4884 -0.4097 -0.4884c -0.2363,-0.1576 -0.5305,-0.1576 -0.5305 -0.1576c -0.2941,-0.0000 -0.5357,0.1576 -0.5357 0.1576c -0.2416,0.1576 -0.4149,0.4884 -0.4149 0.4884c -0.1733,0.3309 -0.2679,0.8561 -0.2679 0.8561c -0.0945,0.5252 -0.0945,1.2605 -0.0945 1.2605c 0.0000,1.4706 0.3624,2.1376 0.3624 2.1376c 0.3624,0.6670 0.9506,0.6670 0.9506 0.6670Z"/></g><g stroke-linejoin="bevel" fill-opacity="1.0" fill="rgb(0,0,0)" stroke="rgb(0,0,0)" stroke-linecap="butt" stroke-miterlimit="10.0" stroke-opacity="0.0" stroke-width="0.0"><path d="M 15.1471,462.4454 ZM 15.8298,461.0903 c 0.2941,0.3046 0.6985,0.5357 0.6985 0.5357c 0.4044,0.2311 0.9926,0.2311 0.9926 0.2311c 0.3046,0.0000 0.5725,-0.1103 0.5725 -0.1103c 0.2679,-0.1103 0.4674,-0.3099 0.4674 -0.3099c 0.1996,-0.1996 0.3151,-0.4832 0.3151 -0.4832c 0.1155,-0.2836 0.1155,-0.6303 0.1155 -0.6303c 0.0000,-0.6933 -0.3887,-1.0819 -0.3887 -1.0819c -0.3887,-0.3887 -1.0399,-0.3887 -1.0399 -0.3887c -0.3466,-0.0000 -0.5935,0.1050 -0.5935 0.1050c -0.2468,0.1050 -0.5515,0.3046 -0.5515 0.3046l -0.4622,-0.2941 l 0.2206,-3.2248 h 3.3508 v 0.7458 h -2.5945 l -0.1786,1.9853 c 0.2416,-0.1261 0.4832,-0.1996 0.4832 -0.1996c 0.2416,-0.0735 0.5462,-0.0735 0.5462 -0.0735c 0.4307,0.0000 0.8088,0.1261 0.8088 0.1261c 0.3782,0.1261 0.6618,0.3834 0.6618 0.3834c 0.2836,0.2574 0.4464,0.6513 0.4464 0.6513c 0.1628,0.3939 0.1628,0.9401 0.1628 0.9401c 0.0000,0.5462 -0.1891,0.9664 -0.1891 0.9664c -0.1891,0.4202 -0.5042,0.7090 -0.5042 0.7090c -0.3151,0.2889 -0.7195,0.4412 -0.7195 0.4412c -0.4044,0.1523 -0.8456,0.1523 -0.8456 0.1523c -0.3992,-0.0000 -0.7300,-0.0788 -0.7300 -0.0788c -0.3309,-0.0788 -0.5987,-0.2048 -0.5987 -0.2048c -0.2679,-0.1261 -0.4832,-0.2889 -0.4832 -0.2889c -0.2153,-0.1628 -0.3834,-0.3414 -0.3834 -0.3414Z"/></g><g stroke-linejoin="bevel" fill-opacity="1.0" fill="rgb(0,0,0)" stroke="rgb(0,0,0)" stroke-linecap="butt" stroke-miterlimit="10.0" stroke-opacity="0.0" stroke-width="0.0"><path d="M 10.4517,351.4454 ZM 11.2815,350.7311 h 1.5336 v -4.9370 h -1.2185 v -0.5567 c 0.4622,-0.0840 0.8036,-0.2048 0.8036 -0.2048c 0.3414,-0.1208 0.6145,-0.2889 0.6145 -0.2889h 0.6618 v 5.9874 h 1.3866 v 0.7143 h -3.7815 v -0.7143 ZM 15.6723,351.4454 ZM 18.2878,351.5714 c -1.0189,-0.0000 -1.5861,-0.9034 -1.5861 -0.9034c -0.5672,-0.9034 -0.5672,-2.5945 -0.5672 -2.5945c 0.0000,-1.6912 0.5672,-2.5735 0.5672 -2.5735c 0.5672,-0.8824 1.5861,-0.8824 1.5861 -0.8824c 1.0084,0.0000 1.5756,0.8824 1.5756 0.8824c 0.5672,0.8824 0.5672,2.5735 0.5672 2.5735c 0.0000,1.6912 -0.5672,2.5945 -0.5672 2.5945c -0.5672,0.9034 -1.5756,0.9034 -1.5756 0.9034ZM 18.2878,351.5714 ZM 18.2878,350.8782 c 0.2941,0.0000 0.5305,-0.1628 0.5305 -0.1628c 0.2363,-0.1628 0.4097,-0.5042 0.4097 -0.5042c 0.1733,-0.3414 0.2679,-0.8718 0.2679 -0.8718c 0.0945,-0.5305 0.0945,-1.2658 0.0945 -1.2658c 0.0000,-0.7353 -0.0945,-1.2605 -0.0945 -1.2605c -0.0945,-0.5252 -0.2679,-0.8561 -0.2679 -0.8561c -0.1733,-0.3309 -0.4097,-0.4884 -0.4097 -0.4884c -0.2363,-0.1576 -0.5305,-0.1576 -0.5305 -0.1576c -0.2941,-0.0000 -0.5357,0.1576 -0.5357 0.1576c -0.2416,0.1576 -0.4149,0.4884 -0.4149 0.4884c -0.1733,0.3309 -0.2679,0.8561 -0.2679 0.8561c -0.0945,0.5252 -0.0945,1.2605 -0.0945 1.2605c 0.0000,1.4706 0.3624,2.1376 0.3624 2.1376c 0.3624,0.6670 0.9506,0.6670 0.9506 0.6670Z"/></g><g stroke-linejoin="bevel" fill-opacity="1.0" fill="rgb(0,0,0)" stroke="rgb(0,0,0)" stroke-linecap="butt" stroke-miterlimit="10.0" stroke-opacity="0.0" stroke-width="0.0"><path d="M 10.4937,240.4454 ZM 11.3235,239.7311 h 1.5336 v -4.9370 h -1.2185 v -0.5567 c 0.4622,-0.0840 0.8036,-0.2048 0.8036 -0.2048c 0.3414,-0.1208 0.6145,-0.2889 0.6145 -0.2889h 0.6618 v 5.9874 h 1.3866 v 0.7143 h -3.7815 v -0.7143 ZM 15.7143,240.4454 ZM 16.3971,239.0903 c 0.2941,0.3046 0.6985,0.5357 0.6985 0.5357c 0.4044,0.2311 0.9926,0.2311 0.9926 0.2311c 0.3046,0.0000 0.5725,-0.1103 0.5725 -0.1103c 0.2679,-0.1103 0.4674,-0.3099 0.4674 -0.3099c 0.1996,-0.1996 0.3151,-0.4832 0.3151 -0.4832c 0.1155,-0.2836 0.1155,-0.6303 0.1155 -0.6303c 0.0000,-0.6933 -0.3887,-1.0819 -0.3887 -1.0819c -0.3887,-0.3887 -1.0399,-0.3887 -1.0399 -0.3887c -0.3466,-0.0000 -0.5935,0.1050 -0.5935 0.1050c -0.2468,0.1050 -0.5515,0.3046 -0.5515 0.3046l -0.4622,-0.2941 l 0.2206,-3.2248 h 3.3508 v 0.7458 h -2.5945 l -0.1786,1.9853 c 0.2416,-0.1261 0.4832,-0.1996 0.4832 -0.1996c 0.2416,-0.0735 0.5462,-0.0735 0.5462 -0.0735c 0.4307,0.0000 0.8088,0.1261 0.8088 0.1261c 0.3782,0.1261 0.6618,0.3834 0.6618 0.3834c 0.2836,0.2574 0.4464,0.6513 0.4464 0.6513c 0.1628,0.3939 0.1628,0.9401 0.1628 0.9401c 0.0000,0.5462 -0.1891,0.9664 -0.1891 0.9664c -0.1891,0.4202 -0.5042,0.7090 -0.5042 0.7090c -0.3151,0.2889 -0.7195,0.4412 -0.7195 0.4412c -0.4044,0.1523 -0.8456,0.1523 -0.8456 0.1523c -0.3992,-0.0000 -0.7300,-0.0788 -0.7300 -0.0788c -0.3309,-0.0788 -0.5987,-0.2048 -0.5987 -0.2048c -0.2679,-0.1261 -0.4832,-0.2889 -0.4832 -0.2889c -0.2153,-0.1628 -0.3834,-0.3414 -0.3834 -0.3414Z"/></g><g stroke-linejoin="bevel" fill-opacity="1.0" fill="rgb(0,0,0)" stroke="rgb(0,0,0)" stroke-linecap="butt" stroke-miterlimit="10.0" stroke-opacity="0.0" stroke-width="0.0"><path d="M 10.0000,129.4454 ZM 10.4202,128.9307 c 0.7563,-0.7563 1.3445,-1.3655 1.3445 -1.3655c 0.5882,-0.6092 0.9874,-1.1292 0.9874 -1.1292c 0.3992,-0.5200 0.6092,-0.9559 0.6092 -0.9559c 0.2101,-0.4359 0.2101,-0.8456 0.2101 -0.8456c 0.0000,-0.5777 -0.3151,-0.9454 -0.3151 -0.9454c -0.3151,-0.3676 -0.9559,-0.3676 -0.9559 -0.3676c -0.4202,-0.0000 -0.7773,0.2363 -0.7773 0.2363c -0.3571,0.2363 -0.6513,0.5725 -0.6513 0.5725l -0.4937,-0.4937 c 0.4202,-0.4622 0.8929,-0.7405 0.8929 -0.7405c 0.4727,-0.2784 1.1345,-0.2784 1.1345 -0.2784c 0.9349,0.0000 1.4706,0.5410 1.4706 0.5410c 0.5357,0.5410 0.5357,1.4338 0.5357 1.4338c 0.0000,0.4727 -0.2048,0.9506 -0.2048 0.9506c -0.2048,0.4779 -0.5672,0.9874 -0.5672 0.9874c -0.3624,0.5095 -0.8613,1.0609 -0.8613 1.0609c -0.4989,0.5515 -1.0977,1.1712 -1.0977 1.1712c 0.2731,-0.0210 0.5672,-0.0420 0.5672 -0.0420c 0.2941,-0.0210 0.5567,-0.0210 0.5567 -0.0210h 1.9433 v 0.7458 h -4.3277 v -0.5147 ZM 15.2206,129.4454 ZM 17.8361,129.5714 c -1.0189,-0.0000 -1.5861,-0.9034 -1.5861 -0.9034c -0.5672,-0.9034 -0.5672,-2.5945 -0.5672 -2.5945c 0.0000,-1.6912 0.5672,-2.5735 0.5672 -2.5735c 0.5672,-0.8824 1.5861,-0.8824 1.5861 -0.8824c 1.0084,0.0000 1.5756,0.8824 1.5756 0.8824c 0.5672,0.8824 0.5672,2.5735 0.5672 2.5735c 0.0000,1.6912 -0.5672,2.5945 -0.5672 2.5945c -0.5672,0.9034 -1.5756,0.9034 -1.5756 0.9034ZM 17.8361,129.5714 ZM 17.8361,128.8782 c 0.2941,0.0000 0.5305,-0.1628 0.5305 -0.1628c 0.2363,-0.1628 0.4097,-0.5042 0.4097 -0.5042c 0.1733,-0.3414 0.2679,-0.8718 0.2679 -0.8718c 0.0945,-0.5305 0.0945,-1.2658 0.0945 -1.2658c 0.0000,-0.7353 -0.0945,-1.2605 -0.0945 -1.2605c -0.0945,-0.5252 -0.2679,-0.8561 -0.2679 -0.8561c -0.1733,-0.3309 -0.4097,-0.4884 -0.4097 -0.4884c -0.2363,-0.1576 -0.5305,-0.1576 -0.5305 -0.1576c -0.2941,-0.0000 -0.5357,0.1576 -0.5357 0.1576c -0.2416,0.1576 -0.4149,0.4884 -0.4149 0.4884c -0.1733,0.3309 -0.2679,0.8561 -0.2679 0.8561c -0.0945,0.5252 -0.0945,1.2605 -0.0945 1.2605c 0.0000,1.4706 0.3624,2.1376 0.3624 2.1376c 0.3624,0.6670 0.9506,0.6670 0.9506 0.6670Z"/></g><g stroke-linejoin="bevel" fill-opacity="1.0" fill="rgb(0,0,0)" stroke="rgb(0,0,0)" stroke-linecap="butt" stroke-miterlimit="10.0" stroke-opacity="0.0" stroke-width="0.0"><path d="M 10.0420,18.4454 ZM 10.4622,17.9307 c 0.7563,-0.7563 1.3445,-1.3655 1.3445 -1.3655c 0.5882,-0.6092 0.9874,-1.1292 0.9874 -1.1292c 0.3992,-0.5200 0.6092,-0.9559 0.6092 -0.9559c 0.2101,-0.4359 0.2101,-0.8456 0.2101 -0.8456c 0.0000,-0.5777 -0.3151,-0.9454 -0.3151 -0.9454c -0.3151,-0.3676 -0.9559,-0.3676 -0.9559 -0.3676c -0.4202,-0.0000 -0.7773,0.2363 -0.7773 0.2363c -0.3571,0.2363 -0.6513,0.5725 -0.6513 0.5725l -0.4937,-0.4937 c 0.4202,-0.4622 0.8929,-0.7405 0.8929 -0.7405c 0.4727,-0.2784 1.1345,-0.2784 1.1345 -0.2784c 0.9349,0.0000 1.4706,0.5410 1.4706 0.5410c 0.5357,0.5410 0.5357,1.4338 0.5357 1.4338c 0.0000,0.4727 -0.2048,0.9506 -0.2048 0.9506c -0.2048,0.4779 -0.5672,0.9874 -0.5672 0.9874c -0.3624,0.5095 -0.8613,1.0609 -0.8613 1.0609c -0.4989,0.5515 -1.0977,1.1712 -1.0977 1.1712c 0.2731,-0.0210 0.5672,-0.0420 0.5672 -0.0420c 0.2941,-0.0210 0.5567,-0.0210 0.5567 -0.0210h 1.9433 v 0.7458 h -4.3277 v -0.5147 ZM 15.2626,18.4454 ZM 15.9454,17.0903 c 0.2941,0.3046 0.6985,0.5357 0.6985 0.5357c 0.4044,0.2311 0.9926,0.2311 0.9926 0.2311c 0.3046,0.0000 0.5725,-0.1103 0.5725 -0.1103c 0.2679,-0.1103 0.4674,-0.3099 0.4674 -0.3099c 0.1996,-0.1996 0.3151,-0.4832 0.3151 -0.4832c 0.1155,-0.2836 0.1155,-0.6303 0.1155 -0.6303c 0.0000,-0.6933 -0.3887,-1.0819 -0.3887 -1.0819c -0.3887,-0.3887 -1.0399,-0.3887 -1.0399 -0.3887c -0.3466,-0.0000 -0.5935,0.1050 -0.5935 0.1050c -0.2468,0.1050 -0.5515,0.3046 -0.5515 0.3046l -0.4622,-0.2941 l 0.2206,-3.2248 h 3.3508 v 0.7458 h -2.5945 l -0.1786,1.9853 c 0.2416,-0.1261 0.4832,-0.1996 0.4832 -0.1996c 0.2416,-0.0735 0.5462,-0.0735 0.5462 -0.0735c 0.4307,0.0000 0.8088,0.1261 0.8088 0.1261c 0.3782,0.1261 0.6618,0.3834 0.6618 0.3834c 0.2836,0.2574 0.4464,0.6513 0.4464 0.6513c 0.1628,0.3939 0.1628,0.9401 0.1628 0.9401c 0.0000,0.5462 -0.1891,0.9664 -0.1891 0.9664c -0.1891,0.4202 -0.5042,0.7090 -0.5042 0.7090c -0.3151,0.2889 -0.7195,0.4412 -0.7195 0.4412c -0.4044,0.1523 -0.8456,0.1523 -0.8456 0.1523c -0.3992,-0.0000 -0.7300,-0.0788 -0.7300 -0.0788c -0.3309,-0.0788 -0.5987,-0.2048 -0.5987 -0.2048c -0.2679,-0.1261 -0.4832,-0.2889 -0.4832 -0.2889c -0.2153,-0.1628 -0.3834,-0.3414 -0.3834 -0.3414Z"/></g><g stroke-linejoin="miter" fill-opacity="0.0" fill="rgb(0,0,0)" stroke="rgb(0,0,0)" stroke-linecap="square" stroke-miterlimit="10.0" stroke-opacity="1.0" stroke-width="0.9999999999999997"><path d="M 29.6008,570.0000 h 755.6197 "/></g><g stroke-linejoin="miter" fill-opacity="0.0" fill="rgb(0,0,0)" stroke="rgb(0,0,0)" stroke-linecap="butt" stroke-miterlimit="10.0" stroke-opacity="1.0" stroke-width="0.9999999999999997"><path d="M 29.6008,570.0000 v -2.0000 "/></g><g stroke-linejoin="miter" fill-opacity="0.0" fill="rgb(0,0,0)" stroke="rgb(0,0,0)" stroke-linecap="butt" stroke-miterlimit="10.0" stroke-opacity="1.0" stroke-width="0.9999999999999997"><path d="M 44.7132,570.0000 v -2.0000 "/></g><g stroke-linejoin="miter" fill-opacity="0.0" fill="rgb(0,0,0)" stroke="rgb(0,0,0)" stroke-linecap="butt" stroke-miterlimit="10.0" stroke-opacity="1.0" stroke-width="0.9999999999999997"><path d="M 59.8256,570.0000 v -2.0000 "/></g><g stroke-linejoin="miter" fill-opacity="0.0" fill="rgb(0,0,0)" stroke="rgb(0,0,0)" stroke-linecap="butt" stroke-miterlimit="10.0" stroke-opacity="1.0" stroke-width="0.9999999999999997"><path d="M 74.9380,570.0000 v -2.0000 "/></g><g stroke-linejoin="miter" fill-opacity="0.0" fill="rgb(0,0,0)" stroke="rgb(0,0,0)" stroke-linecap="butt" stroke-miterlimit="10.0" stroke-opacity="1.0" stroke-width="0.9999999999999997"><path d="M 90.0504,570.0000 v -2.0000 "/></g><g stroke-linejoin="miter" fill-opacity="0.0" fill="rgb(0,0,0)" stroke="rgb(0,0,0)" stroke-linecap="butt" stroke-miterlimit="10.0" stroke-opacity="1.0" stroke-width="0.9999999999999997"><path d="M 105.1628,570.0000 v -2.0000 "/></g><g stroke-linejoin="miter" fill-opacity="0.0" fill="rgb(0,0,0)" stroke="rgb(0,0,0)" stroke-linecap="butt" stroke-miterlimit="10.0" stroke-opacity="1.0" stroke-width="0.9999999999999997"><path d="M 120.2752,570.0000 v -2.0000 "/></g><g stroke-linejoin="miter" fill-opacity="0.0" fill="rgb(0,0,0)" stroke="rgb(0,0,0)" stroke-linecap="butt" stroke-miterlimit="10.0" stroke-opacity="1.0" stroke-width="0.9999999999999997"><path d="M 135.3876,570.0000 v -2.0000 "/></g><g stroke-linejoin="miter" fill-opacity="0.0" fill="rgb(0,0,0)" stroke="rgb(0,0,0)" stroke-linecap="butt" stroke-miterlimit="10.0" stroke-opacity="1.0" stroke-width="0.9999999999999997"><path d="M 150.5000,570.0000 v -2.0000 "/></g><g stroke-linejoin="miter" fill-opacity="0.0" fill="rgb(0,0,0)" stroke="rgb(0,0,0)" stroke-linecap="butt" stroke-miterlimit="10.0" stroke-opacity="1.0" stroke-width="0.9999999999999997"><path d="M 165.6124,570.0000 v -2.0000 "/></g><g stroke-linejoin="miter" fill-opacity="0.0" fill="rgb(0,0,0)" stroke="rgb(0,0,0)" stroke-linecap="butt" stroke-miterlimit="10.0" stroke-opacity="1.0" stroke-width="0.9999999999999997"><path d="M 180.7248,570.0000 v -2.0000 "/></g><g stroke-linejoin="miter" fill-opacity="0.0" fill="rgb(0,0,0)" stroke="rgb(0,0,0)" stroke-linecap="butt" stroke-miterlimit="10.0" stroke-opacity="1.0" stroke-width="0.9999999999999997"><path d="M 195.8372,570.0000 v -2.0000 "/></g><g stroke-linejoin="miter" fill-opacity="0.0" fill="rgb(0,0,0)" stroke="rgb(0,0,0)" stroke-linecap="butt" stroke-miterlimit="10.0" stroke-opacity="1.0" stroke-width="0.9999999999999997"><path d="M 210.9496,570.0000 v -2.0000 "/></g><g stroke-linejoin="miter" fill-opacity="0.0" fill="rgb(0,0,0)" stroke="rgb(0,0,0)" stroke-linecap="butt" stroke-miterlimit="10.0" stroke-opacity="1.0" stroke-width="0.9999999999999997"><path d="M 226.0620,570.0000 v -2.0000 "/></g><g stroke-linejoin="miter" fill-opacity="0.0" fill="rgb(0,0,0)" stroke="rgb(0,0,0)" stroke-linecap="butt" stroke-miterlimit="10.0" stroke-opacity="1.0" stroke-width="0.9999999999999997"><path d="M 241.1744,570.0000 v -2.0000 "/></g><g stroke-linejoin="miter" fill-opacity="0.0" fill="rgb(0,0,0)" stroke="rgb(0,0,0)" stroke-linecap="butt" stroke-miterlimit="10.0" stroke-opacity="1.0" stroke-width="0.9999999999999997"><path d="M 256.2868,570.0000 v -2.0000 "/></g><g stroke-linejoin="miter" fill-opacity="0.0" fill="rgb(0,0,0)" stroke="rgb(0,0,0)" stroke-linecap="butt" stroke-miterlimit="10.0" stroke-opacity="1.0" stroke-width="0.9999999999999997"><path d="M 271.3992,570.0000 v -2.0000 "/></g><g stroke-linejoin="miter" fill-opacity="0.0" fill="rgb(0,0,0)" stroke="rgb(0,0,0)" stroke-linecap="butt" stroke-miterlimit="10.0" stroke-opacity="1.0" stroke-width="0.9999999999999997"><path d="M 286.5116,570.0000 v -2.0000 "/></g><g stroke-linejoin="miter" fill-opacity="0.0" fill="rgb(0,0,0)" stroke="rgb(0,0,0)" stroke-linecap="butt" stroke-miterlimit="10.0" stroke-opacity="1.0" stroke-width="0.9999999999999997"><path d="M 301.6239,570.0000 v -2.0000 "/></g><g stroke-linejoin="miter" fill-opacity="0.0" fill="rgb(0,0,0)" stroke="rgb(0,0,0)" stroke-linecap="butt" stroke-miterlimit="10.0" stroke-opacity="1.0" stroke-width="0.9999999999999997"><path d="M 316.7363,570.0000 v -2.0000 "/></g><g stroke-linejoin="miter" fill-opacity="0.0" fill="rgb(0,0,0)" stroke="rgb(0,0,0)" stroke-linecap="butt" stroke-miterlimit="10.0" stroke-opacity="1.0" stroke-width="0.9999999999999997"><path d="M 331.8487,570.0000 v -2.0000 "/></g><g stroke-linejoin="miter" fill-opacity="0.0" fill="rgb(0,0,0)" stroke="rgb(0,0,0)" stroke-linecap="butt" stroke-miterlimit="10.0" stroke-opacity="1.0" stroke-width="0.9999999999999997"><path d="M 346.9611,570.0000 v -2.0000 "/></g><g stroke-linejoin="miter" fill-opacity="0.0" fill="rgb(0,0,0)" stroke="rgb(0,0,0)" stroke-linecap="butt" stroke-miterlimit="10.0" stroke-opacity="1.0" stroke-width="0.9999999999999997"><path d="M 362.0735,570.0000 v -2.0000 "/></g><g stroke-linejoin="miter" fill-opacity="0.0" fill="rgb(0,0,0)" stroke="rgb(0,0,0)" stroke-linecap="butt" stroke-miterlimit="10.0" stroke-opacity="1.0" stroke-width="0.9999999999999997"><path d="M 377.1859,570.0000 v -2.0000 "/></g><g stroke-linejoin="miter" fill-opacity="0.0" fill="rgb(0,0,0)" stroke="rgb(0,0,0)" stroke-linecap="butt" stroke-miterlimit="10.0" stroke-opacity="1.0" stroke-width="0.9999999999999997"><path d="M 392.2983,570.0000 v -2.0000 "/></g><g stroke-linejoin="miter" fill-opacity="0.0" fill="rgb(0,0,0)" stroke="rgb(0,0,0)" stroke-linecap="butt" stroke-miterlimit="10.0" stroke-opacity="1.0" stroke-width="0.9999999999999997"><path d="M 407.4107,570.0000 v -2.0000 "/></g><g stroke-linejoin="miter" fill-opacity="0.0" fill="rgb(0,0,0)" stroke="rgb(0,0,0)" stroke-linecap="butt" stroke-miterlimit="10.0" stroke-opacity="1.0" stroke-width="0.9999999999999997"><path d="M 422.5231,570.0000 v -2.0000 "/></g><g stroke-linejoin="miter" fill-opacity="0.0" fill="rgb(0,0,0)" stroke="rgb(0,0,0)" stroke-linecap="butt" stroke-miterlimit="10.0" stroke-opacity="1.0" stroke-width="0.9999999999999997"><path d="M 437.6355,570.0000 v -2.0000 "/></g><g stroke-linejoin="miter" fill-opacity="0.0" fill="rgb(0,0,0)" stroke="rgb(0,0,0)" stroke-linecap="butt" stroke-miterlimit="10.0" stroke-opacity="1.0" stroke-width="0.9999999999999997"><path d="M 452.7479,570.0000 v -2.0000 "/></g><g stroke-linejoin="miter" fill-opacity="0.0" fill="rgb(0,0,0)" stroke="rgb(0,0,0)" stroke-linecap="butt" stroke-miterlimit="10.0" stroke-opacity="1.0" stroke-width="0.9999999999999997"><path d="M 467.8603,570.0000 v -2.0000 "/></g><g stroke-linejoin="miter" fill-opacity="0.0" fill="rgb(0,0,0)" stroke="rgb(0,0,0)" stroke-linecap="butt" stroke-miterlimit="10.0" stroke-opacity="1.0" stroke-width="0.9999999999999997"><path d="M 482.9727,570.0000 v -2.0000 "/></g><g stroke-linejoin="miter" fill-opacity="0.0" fill="rgb(0,0,0)" stroke="rgb(0,0,0)" stroke-linecap="butt" stroke-miterlimit="10.0" stroke-opacity="1.0" stroke-width="0.9999999999999997"><path d="M 498.0851,570.0000 v -2.0000 "/></g><g stroke-linejoin="miter" fill-opacity="0.0" fill="rgb(0,0,0)" stroke="rgb(0,0,0)" stroke-linecap="butt" stroke-miterlimit="10.0" stroke-opacity="1.0" stroke-width="0.9999999999999997"><path d="M 513.1975,570.0000 v -2.0000 "/></g><g stroke-linejoin="miter" fill-opacity="0.0" fill="rgb(0,0,0)" stroke="rgb(0,0,0)" stroke-linecap="butt" stroke-miterlimit="10.0" stroke-opacity="1.0" stroke-width="0.9999999999999997"><path d="M 528.3099,570.0000 v -2.0000 "/></g><g stroke-linejoin="miter" fill-opacity="0.0" fill="rgb(0,0,0)" stroke="rgb(0,0,0)" stroke-linecap="butt" stroke-miterlimit="10.0" stroke-opacity="1.0" stroke-width="0.9999999999999997"><path d="M 543.4223,570.0000 v -2.0000 "/></g><g stroke-linejoin="miter" fill-opacity="0.0" fill="rgb(0,0,0)" stroke="rgb(0,0,0)" stroke-linecap="butt" stroke-miterlimit="10.0" stroke-opacity="1.0" stroke-width="0.9999999999999997"><path d="M 558.5347,570.0000 v -2.0000 "/></g><g stroke-linejoin="miter" fill-opacity="0.0" fill="rgb(0,0,0)" stroke="rgb(0,0,0)" stroke-linecap="butt" stroke-miterlimit="10.0" stroke-opacity="1.0" stroke-width="0.9999999999999997"><path d="M 573.6471,570.0000 v -2.0000 "/></g><g stroke-linejoin="miter" fill-opacity="0.0" fill="rgb(0,0,0)" stroke="rgb(0,0,0)" stroke-linecap="butt" stroke-miterlimit="10.0" stroke-opacity="1.0" stroke-width="0.9999999999999997"><path d="M 588.7595,570.0000 v -2.0000 "/></g><g stroke-linejoin="miter" fill-opacity="0.0" fill="rgb(0,0,0)" stroke="rgb(0,0,0)" stroke-linecap="butt" stroke-miterlimit="10.0" stroke-opacity="1.0" stroke-width="0.9999999999999997"><path d="M 603.8718,570.0000 v -2.0000 "/></g><g stroke-linejoin="miter" fill-opacity="0.0" fill="rgb(0,0,0)" stroke="rgb(0,0,0)" stroke-linecap="butt" stroke-miterlimit="10.0" stroke-opacity="1.0" stroke-width="0.9999999999999997"><path d="M 618.9842,570.0000 v -2.0000 "/></g><g stroke-linejoin="miter" fill-opacity="0.0" fill="rgb(0,0,0)" stroke="rgb(0,0,0)" stroke-linecap="butt" stroke-miterlimit="10.0" stroke-opacity="1.0" stroke-width="0.9999999999999997"><path d="M 634.0966,570.0000 v -2.0000 "/></g><g stroke-linejoin="miter" fill-opacity="0.0" fill="rgb(0,0,0)" stroke="rgb(0,0,0)" stroke-linecap="butt" stroke-miterlimit="10.0" stroke-opacity="1.0" stroke-width="0.9999999999999997"><path d="M 649.2090,570.0000 v -2.0000 "/></g><g stroke-linejoin="miter" fill-opacity="0.0" fill="rgb(0,0,0)" stroke="rgb(0,0,0)" stroke-linecap="butt" stroke-miterlimit="10.0" stroke-opacity="1.0" stroke-width="0.9999999999999997"><path d="M 664.3214,570.0000 v -2.0000 "/></g><g stroke-linejoin="miter" fill-opacity="0.0" fill="rgb(0,0,0)" stroke="rgb(0,0,0)" stroke-linecap="butt" stroke-miterlimit="10.0" stroke-opacity="1.0" stroke-width="0.9999999999999997"><path d="M 679.4338,570.0000 v -2.0000 "/></g><g stroke-linejoin="miter" fill-opacity="0.0" fill="rgb(0,0,0)" stroke="rgb(0,0,0)" stroke-linecap="butt" stroke-miterlimit="10.0" stroke-opacity="1.0" stroke-width="0.9999999999999997"><path d="M 694.5462,570.0000 v -2.0000 "/></g><g stroke-linejoin="miter" fill-opacity="0.0" fill="rgb(0,0,0)" stroke="rgb(0,0,0)" stroke-linecap="butt" stroke-miterlimit="10.0" stroke-opacity="1.0" stroke-width="0.9999999999999997"><path d="M 709.6586,570.0000 v -2.0000 "/></g><g stroke-linejoin="miter" fill-opacity="0.0" fill="rgb(0,0,0)" stroke="rgb(0,0,0)" stroke-linecap="butt" stroke-miterlimit="10.0" stroke-opacity="1.0" stroke-width="0.9999999999999997"><path d="M 724.7710,570.0000 v -2.0000 "/></g><g stroke-linejoin="miter" fill-opacity="0.0" fill="rgb(0,0,0)" stroke="rgb(0,0,0)" stroke-linecap="butt" stroke-miterlimit="10.0" stroke-opacity="1.0" stroke-width="0.9999999999999997"><path d="M 739.8834,570.0000 v -2.0000 "/></g><g stroke-linejoin="miter" fill-opacity="0.0" fill="rgb(0,0,0)" stroke="rgb(0,0,0)" stroke-linecap="butt" stroke-miterlimit="10.0" stroke-opacity="1.0" stroke-width="0.9999999999999997"><path d="M 754.9958,570.0000 v -2.0000 "/></g><g stroke-linejoin="miter" fill-opacity="0.0" fill="rgb(0,0,0)" stroke="rgb(0,0,0)" stroke-linecap="butt" stroke-miterlimit="10.0" stroke-opacity="1.0" stroke-width="0.9999999999999997"><path d="M 770.1082,570.0000 v -2.0000 "/></g><g stroke-linejoin="miter" fill-opacity="0.0" fill="rgb(0,0,0)" stroke="rgb(0,0,0)" stroke-linecap="butt" stroke-miterlimit="10.0" stroke-opacity="1.0" stroke-width="0.9999999999999997"><path d="M 785.2206,570.0000 v -2.0000 "/></g><g stroke-linejoin="miter" fill-opacity="0.0" fill="rgb(0,0,0)" stroke="rgb(0,0,0)" stroke-linecap="butt" stroke-miterlimit="10.0" stroke-opacity="1.0" stroke-width="0.9999999999999997"><path d="M 29.6008,570.0000 v -5.0000 "/></g><g stroke-linejoin="miter" fill-opacity="0.0" fill="rgb(0,0,0)" stroke="rgb(0,0,0)" stroke-linecap="butt" stroke-miterlimit="10.0" stroke-opacity="1.0" stroke-width="0.9999999999999997"><path d="M 180.7248,570.0000 v -5.0000 "/></g><g stroke-linejoin="miter" fill-opacity="0.0" fill="rgb(0,0,0)" stroke="rgb(0,0,0)" stroke-linecap="butt" stroke-miterlimit="10.0" stroke-opacity="1.0" stroke-width="0.9999999999999997"><path d="M 331.8487,570.0000 v -5.0000 "/></g><g stroke-linejoin="miter" fill-opacity="0.0" fill="rgb(0,0,0)" stroke="rgb(0,0,0)" stroke-linecap="butt" stroke-miterlimit="10.0" stroke-opacity="1.0" stroke-width="0.9999999999999997"><path d="M 482.9727,570.0000 v -5.0000 "/></g><g stroke-linejoin="miter" fill-opacity="0.0" fill="rgb(0,0,0)" stroke="rgb(0,0,0)" stroke-linecap="butt" stroke-miterlimit="10.0" stroke-opacity="1.0" stroke-width="0.9999999999999997"><path d="M 634.0966,570.0000 v -5.0000 "/></g><g stroke-linejoin="miter" fill-opacity="0.0" fill="rgb(0,0,0)" stroke="rgb(0,0,0)" stroke-linecap="butt" stroke-miterlimit="10.0" stroke-opacity="1.0" stroke-width="0.9999999999999997"><path d="M 785.2206,570.0000 v -5.0000 "/></g><g stroke-linejoin="bevel" fill-opacity="1.0" fill="rgb(0,0,0)" stroke="rgb(0,0,0)" stroke-linecap="butt" stroke-miterlimit="10.0" stroke-opacity="0.0" stroke-width="0.0"><path d="M 27.4527,590.0000 ZM 30.0683,590.1261 c -1.0189,-0.0000 -1.5861,-0.9034 -1.5861 -0.9034c -0.5672,-0.9034 -0.5672,-2.5945 -0.5672 -2.5945c 0.0000,-1.6912 0.5672,-2.5735 0.5672 -2.5735c 0.5672,-0.8824 1.5861,-0.8824 1.5861 -0.8824c 1.0084,0.0000 1.5756,0.8824 1.5756 0.8824c 0.5672,0.8824 0.5672,2.5735 0.5672 2.5735c 0.0000,1.6912 -0.5672,2.5945 -0.5672 2.5945c -0.5672,0.9034 -1.5756,0.9034 -1.5756 0.9034ZM 30.0683,590.1261 ZM 30.0683,589.4328 c 0.2941,0.0000 0.5305,-0.1628 0.5305 -0.1628c 0.2363,-0.1628 0.4097,-0.5042 0.4097 -0.5042c 0.1733,-0.3414 0.2679,-0.8718 0.2679 -0.8718c 0.0945,-0.5305 0.0945,-1.2658 0.0945 -1.2658c 0.0000,-0.7353 -0.0945,-1.2605 -0.0945 -1.2605c -0.0945,-0.5252 -0.2679,-0.8561 -0.2679 -0.8561c -0.1733,-0.3309 -0.4097,-0.4884 -0.4097 -0.4884c -0.2363,-0.1576 -0.5305,-0.1576 -0.5305 -0.1576c -0.2941,-0.0000 -0.5357,0.1576 -0.5357 0.1576c -0.2416,0.1576 -0.4149,0.4884 -0.4149 0.4884c -0.1733,0.3309 -0.2679,0.8561 -0.2679 0.8561c -0.0945,0.5252 -0.0945,1.2605 -0.0945 1.2605c 0.0000,1.4706 0.3624,2.1376 0.3624 2.1376c 0.3624,0.6670 0.9506,0.6670 0.9506 0.6670Z"/></g><g stroke-linejoin="bevel" fill-opacity="1.0" fill="rgb(0,0,0)" stroke="rgb(0,0,0)" stroke-linecap="butt" stroke-miterlimit="10.0" stroke-opacity="0.0" stroke-width="0.0"><path d="M 178.4979,590.0000 ZM 179.1807,588.6450 c 0.2941,0.3046 0.6985,0.5357 0.6985 0.5357c 0.4044,0.2311 0.9926,0.2311 0.9926 0.2311c 0.3046,0.0000 0.5725,-0.1103 0.5725 -0.1103c 0.2679,-0.1103 0.4674,-0.3099 0.4674 -0.3099c 0.1996,-0.1996 0.3151,-0.4832 0.3151 -0.4832c 0.1155,-0.2836 0.1155,-0.6303 0.1155 -0.6303c 0.0000,-0.6933 -0.3887,-1.0819 -0.3887 -1.0819c -0.3887,-0.3887 -1.0399,-0.3887 -1.0399 -0.3887c -0.3466,-0.0000 -0.5935,0.1050 -0.5935 0.1050c -0.2468,0.1050 -0.5515,0.3046 -0.5515 0.3046l -0.4622,-0.2941 l 0.2206,-3.2248 h 3.3508 v 0.7458 h -2.5945 l -0.1786,1.9853 c 0.2416,-0.1261 0.4832,-0.1996 0.4832 -0.1996c 0.2416,-0.0735 0.5462,-0.0735 0.5462 -0.0735c 0.4307,0.0000 0.8088,0.1261 0.8088 0.1261c 0.3782,0.1261 0.6618,0.3834 0.6618 0.3834c 0.2836,0.2574 0.4464,0.6513 0.4464 0.6513c 0.1628,0.3939 0.1628,0.9401 0.1628 0.9401c 0.0000,0.5462 -0.1891,0.9664 -0.1891 0.9664c -0.1891,0.4202 -0.5042,0.7090 -0.5042 0.7090c -0.3151,0.2889 -0.7195,0.4412 -0.7195 0.4412c -0.4044,0.1523 -0.8456,0.1523 -0.8456 0.1523c -0.3992,-0.0000 -0.7300,-0.0788 -0.7300 -0.0788c -0.3309,-0.0788 -0.5987,-0.2048 -0.5987 -0.2048c -0.2679,-0.1261 -0.4832,-0.2889 -0.4832 -0.2889c -0.2153,-0.1628 -0.3834,-0.3414 -0.3834 -0.3414Z"/></g><g stroke-linejoin="bevel" fill-opacity="1.0" fill="rgb(0,0,0)" stroke="rgb(0,0,0)" stroke-linecap="butt" stroke-miterlimit="10.0" stroke-opacity="0.0" stroke-width="0.0"><path d="M 327.2742,590.0000 ZM 328.1040,589.2857 h 1.5336 v -4.9370 h -1.2185 v -0.5567 c 0.4622,-0.0840 0.8036,-0.2048 0.8036 -0.2048c 0.3414,-0.1208 0.6145,-0.2889 0.6145 -0.2889h 0.6618 v 5.9874 h 1.3866 v 0.7143 h -3.7815 v -0.7143 ZM 332.4947,590.0000 ZM 335.1103,590.1261 c -1.0189,-0.0000 -1.5861,-0.9034 -1.5861 -0.9034c -0.5672,-0.9034 -0.5672,-2.5945 -0.5672 -2.5945c 0.0000,-1.6912 0.5672,-2.5735 0.5672 -2.5735c 0.5672,-0.8824 1.5861,-0.8824 1.5861 -0.8824c 1.0084,0.0000 1.5756,0.8824 1.5756 0.8824c 0.5672,0.8824 0.5672,2.5735 0.5672 2.5735c 0.0000,1.6912 -0.5672,2.5945 -0.5672 2.5945c -0.5672,0.9034 -1.5756,0.9034 -1.5756 0.9034ZM 335.1103,590.1261 ZM 335.1103,589.4328 c 0.2941,0.0000 0.5305,-0.1628 0.5305 -0.1628c 0.2363,-0.1628 0.4097,-0.5042 0.4097 -0.5042c 0.1733,-0.3414 0.2679,-0.8718 0.2679 -0.8718c 0.0945,-0.5305 0.0945,-1.2658 0.0945 -1.2658c 0.0000,-0.7353 -0.0945,-1.2605 -0.0945 -1.2605c -0.0945,-0.5252 -0.2679,-0.8561 -0.2679 -0.8561c -0.1733,-0.3309 -0.4097,-0.4884 -0.4097 -0.4884c -0.2363,-0.1576 -0.5305,-0.1576 -0.5305 -0.1576c -0.2941,-0.0000 -0.5357,0.1576 -0.5357 0.1576c -0.2416,0.1576 -0.4149,0.4884 -0.4149 0.4884c -0.1733,0.3309 -0.2679,0.8561 -0.2679 0.8561c -0.0945,0.5252 -0.0945,1.2605 -0.0945 1.2605c 0.0000,1.4706 0.3624,2.1376 0.3624 2.1376c 0.3624,0.6670 0.9506,0.6670 0.9506 0.6670Z"/></g><g stroke-linejoin="bevel" fill-opacity="1.0" fill="rgb(0,0,0)" stroke="rgb(0,0,0)" stroke-linecap="butt" stroke-miterlimit="10.0" stroke-opacity="0.0" stroke-width="0.0"><path d="M 478.4191,590.0000 ZM 479.2489,589.2857 h 1.5336 v -4.9370 h -1.2185 v -0.5567 c 0.4622,-0.0840 0.8036,-0.2048 0.8036 -0.2048c 0.3414,-0.1208 0.6145,-0.2889 0.6145 -0.2889h 0.6618 v 5.9874 h 1.3866 v 0.7143 h -3.7815 v -0.7143 ZM 483.6397,590.0000 ZM 484.3225,588.6450 c 0.2941,0.3046 0.6985,0.5357 0.6985 0.5357c 0.4044,0.2311 0.9926,0.2311 0.9926 0.2311c 0.3046,0.0000 0.5725,-0.1103 0.5725 -0.1103c 0.2679,-0.1103 0.4674,-0.3099 0.4674 -0.3099c 0.1996,-0.1996 0.3151,-0.4832 0.3151 -0.4832c 0.1155,-0.2836 0.1155,-0.6303 0.1155 -0.6303c 0.0000,-0.6933 -0.3887,-1.0819 -0.3887 -1.0819c -0.3887,-0.3887 -1.0399,-0.3887 -1.0399 -0.3887c -0.3466,-0.0000 -0.5935,0.1050 -0.5935 0.1050c -0.2468,0.1050 -0.5515,0.3046 -0.5515 0.3046l -0.4622,-0.2941 l 0.2206,-3.2248 h 3.3508 v 0.7458 h -2.5945 l -0.1786,1.9853 c 0.2416,-0.1261 0.4832,-0.1996 0.4832 -0.1996c 0.2416,-0.0735 0.5462,-0.0735 0.5462 -0.0735c 0.4307,0.0000 0.8088,0.1261 0.8088 0.1261c 0.3782,0.1261 0.6618,0.3834 0.6618 0.3834c 0.2836,0.2574 0.4464,0.6513 0.4464 0.6513c 0.1628,0.3939 0.1628,0.9401 0.1628 0.9401c 0.0000,0.5462 -0.1891,0.9664 -0.1891 0.9664c -0.1891,0.4202 -0.5042,0.7090 -0.5042 0.7090c -0.3151,0.2889 -0.7195,0.4412 -0.7195 0.4412c -0.4044,0.1523 -0.8456,0.1523 -0.8456 0.1523c -0.3992,-0.0000 -0.7300,-0.0788 -0.7300 -0.0788c -0.3309,-0.0788 -0.5987,-0.2048 -0.5987 -0.2048c -0.2679,-0.1261 -0.4832,-0.2889 -0.4832 -0.2889c -0.2153,-0.1628 -0.3834,-0.3414 -0.3834 -0.3414Z"/></g><g stroke-linejoin="bevel" fill-opacity="1.0" fill="rgb(0,0,0)" stroke="rgb(0,0,0)" stroke-linecap="butt" stroke-miterlimit="10.0" stroke-opacity="0.0" stroke-width="0.0"><path d="M 629.2962,590.0000 ZM 629.7164,589.4853 c 0.7563,-0.7563 1.3445,-1.3655 1.3445 -1.3655c 0.5882,-0.6092 0.9874,-1.1292 0.9874 -1.1292c 0.3992,-0.5200 0.6092,-0.9559 0.6092 -0.9559c 0.2101,-0.4359 0.2101,-0.8456 0.2101 -0.8456c 0.0000,-0.5777 -0.3151,-0.9454 -0.3151 -0.9454c -0.3151,-0.3676 -0.9559,-0.3676 -0.9559 -0.3676c -0.4202,-0.0000 -0.7773,0.2363 -0.7773 0.2363c -0.3571,0.2363 -0.6513,0.5725 -0.6513 0.5725l -0.4937,-0.4937 c 0.4202,-0.4622 0.8929,-0.7405 0.8929 -0.7405c 0.4727,-0.2784 1.1345,-0.2784 1.1345 -0.2784c 0.9349,0.0000 1.4706,0.5410 1.4706 0.5410c 0.5357,0.5410 0.5357,1.4338 0.5357 1.4338c 0.0000,0.4727 -0.2048,0.9506 -0.2048 0.9506c -0.2048,0.4779 -0.5672,0.9874 -0.5672 0.9874c -0.3624,0.5095 -0.8613,1.0609 -0.8613 1.0609c -0.4989,0.5515 -1.0977,1.1712 -1.0977 1.1712c 0.2731,-0.0210 0.5672,-0.0420 0.5672 -0.0420c 0.2941,-0.0210 0.5567,-0.0210 0.5567 -0.0210h 1.9433 v 0.7458 h -4.3277 v -0.5147 ZM 634.5168,590.0000 ZM 637.1324,590.1261 c -1.0189,-0.0000 -1.5861,-0.9034 -1.5861 -0.9034c -0.5672,-0.9034 -0.5672,-2.5945 -0.5672 -2.5945c 0.0000,-1.6912 0.5672,-2.5735 0.5672 -2.5735c 0.5672,-0.8824 1.5861,-0.8824 1.5861 -0.8824c 1.0084,0.0000 1.5756,0.8824 1.5756 0.8824c 0.5672,0.8824 0.5672,2.5735 0.5672 2.5735c 0.0000,1.6912 -0.5672,2.5945 -0.5672 2.5945c -0.5672,0.9034 -1.5756,0.9034 -1.5756 0.9034ZM 637.1324,590.1261 ZM 637.1324,589.4328 c 0.2941,0.0000 0.5305,-0.1628 0.5305 -0.1628c 0.2363,-0.1628 0.4097,-0.5042 0.4097 -0.5042c 0.1733,-0.3414 0.2679,-0.8718 0.2679 -0.8718c 0.0945,-0.5305 0.0945,-1.2658 0.0945 -1.2658c 0.0000,-0.7353 -0.0945,-1.2605 -0.0945 -1.2605c -0.0945,-0.5252 -0.2679,-0.8561 -0.2679 -0.8561c -0.1733,-0.3309 -0.4097,-0.4884 -0.4097 -0.4884c -0.2363,-0.1576 -0.5305,-0.1576 -0.5305 -0.1576c -0.2941,-0.0000 -0.5357,0.1576 -0.5357 0.1576c -0.2416,0.1576 -0.4149,0.4884 -0.4149 0.4884c -0.1733,0.3309 -0.2679,0.8561 -0.2679 0.8561c -0.0945,0.5252 -0.0945,1.2605 -0.0945 1.2605c 0.0000,1.4706 0.3624,2.1376 0.3624 2.1376c 0.3624,0.6670 0.9506,0.6670 0.9506 0.6670Z"/></g><g stroke-linejoin="bevel" fill-opacity="1.0" fill="rgb(0,0,0)" stroke="rgb(0,0,0)" stroke-linecap="butt" stroke-miterlimit="10.0" stroke-opacity="0.0" stroke-width="0.0"><path d="M 780.4412,590.0000 ZM 780.8613,589.4853 c 0.7563,-0.7563 1.3445,-1.3655 1.3445 -1.3655c 0.5882,-0.6092 0.9874,-1.1292 0.9874 -1.1292c 0.3992,-0.5200 0.6092,-0.9559 0.6092 -0.9559c 0.2101,-0.4359 0.2101,-0.8456 0.2101 -0.8456c 0.0000,-0.5777 -0.3151,-0.9454 -0.3151 -0.9454c -0.3151,-0.3676 -0.9559,-0.3676 -0.9559 -0.3676c -0.4202,-0.0000 -0.7773,0.2363 -0.7773 0.2363c -0.3571,0.2363 -0.6513,0.5725 -0.6513 0.5725l -0.4937,-0.4937 c 0.4202,-0.4622 0.8929,-0.7405 0.8929 -0.7405c 0.4727,-0.2784 1.1345,-0.2784 1.1345 -0.2784c 0.9349,0.0000 1.4706,0.5410 1.4706 0.5410c 0.5357,0.5410 0.5357,1.4338 0.5357 1.4338c 0.0000,0.4727 -0.2048,0.9506 -0.2048 0.9506c -0.2048,0.4779 -0.5672,0.9874 -0.5672 0.9874c -0.3624,0.5095 -0.8613,1.0609 -0.8613 1.0609c -0.4989,0.5515 -1.0977,1.1712 -1.0977 1.1712c 0.2731,-0.0210 0.5672,-0.0420 0.5672 -0.0420c 0.2941,-0.0210 0.5567,-0.0210 0.5567 -0.0210h 1.9433 v 0.7458 h -4.3277 v -0.5147 ZM 785.6618,590.0000 ZM 786.3445,588.6450 c 0.2941,0.3046 0.6985,0.5357 0.6985 0.5357c 0.4044,0.2311 0.9926,0.2311 0.9926 0.2311c 0.3046,0.0000 0.5725,-0.1103 0.5725 -0.1103c 0.2679,-0.1103 0.4674,-0.3099 0.4674 -0.3099c 0.1996,-0.1996 0.3151,-0.4832 0.3151 -0.4832c 0.1155,-0.2836 0.1155,-0.6303 0.1155 -0.6303c 0.0000,-0.6933 -0.3887,-1.0819 -0.3887 -1.0819c -0.3887,-0.3887 -1.0399,-0.3887 -1.0399 -0.3887c -0.3466,-0.0000 -0.5935,0.1050 -0.5935 0.1050c -0.2468,0.1050 -0.5515,0.3046 -0.5515 0.3046l -0.4622,-0.2941 l 0.2206,-3.2248 h 3.3508 v 0.7458 h -2.5945 l -0.1786,1.9853 c 0.2416,-0.1261 0.4832,-0.1996 0.4832 -0.1996c 0.2416,-0.0735 0.5462,-0.0735 0.5462 -0.0735c 0.4307,0.0000 0.8088,0.1261 0.8088 0.1261c 0.3782,0.1261 0.6618,0.3834 0.6618 0.3834c 0.2836,0.2574 0.4464,0.6513 0.4464 0.6513c 0.1628,0.3939 0.1628,0.9401 0.1628 0.9401c 0.0000,0.5462 -0.1891,0.9664 -0.1891 0.9664c -0.1891,0.4202 -0.5042,0.7090 -0.5042 0.7090c -0.3151,0.2889 -0.7195,0.4412 -0.7195 0.4412c -0.4044,0.1523 -0.8456,0.1523 -0.8456 0.1523c -0.3992,-0.0000 -0.7300,-0.0788 -0.7300 -0.0788c -0.3309,-0.0788 -0.5987,-0.2048 -0.5987 -0.2048c -0.2679,-0.1261 -0.4832,-0.2889 -0.4832 -0.2889c -0.2153,-0.1628 -0.3834,-0.3414 -0.3834 -0.3414Z"/></g></svg>